<svg width="12" height="8" viewBox="0 0 12 8" fill="none" xmlns="http://www.w3.org/2000/svg">
<path d="M0.295513 0.795309C0.201875 0.888118 0.127553 0.998536 0.0768329 1.12019C0.0261132 1.24185 0 1.37234 0 1.50413C0 1.63593 0.0261132 1.76642 0.0768329 1.88808C0.127553 2.00973 0.201875 2.12015 0.295513 2.21296L5.29069 7.20469C5.38356 7.29826 5.49405 7.37254 5.61579 7.42322C5.73754 7.4739 5.86812 7.5 6 7.5C6.13188 7.5 6.26246 7.4739 6.38421 7.42322C6.50595 7.37254 6.61644 7.29826 6.70931 7.20469L11.7045 2.21296C11.7981 2.12015 11.8724 2.00973 11.9232 1.88808C11.9739 1.76642 12 1.63593 12 1.50413C12 1.37234 11.9739 1.24185 11.9232 1.12019C11.8724 0.998536 11.7981 0.888118 11.7045 0.795309C11.6116 0.701735 11.5011 0.627465 11.3794 0.57678C11.2576 0.526095 11.1271 0.5 10.9952 0.5C10.8633 0.5 10.7327 0.526095 10.611 0.57678C10.4892 0.627465 10.3787 0.701735 10.2859 0.795309L6 5.0882L1.71414 0.795309C1.62127 0.701735 1.51077 0.627465 1.38903 0.57678C1.26729 0.526095 1.13671 0.5 1.00483 0.5C0.872943 0.5 0.742363 0.526095 0.620622 0.57678C0.49888 0.627465 0.388386 0.701735 0.295513 0.795309Z" fill="#001F3F"/>
</svg>
