<svg width="18" height="16" viewBox="0 0 18 16" fill="none" xmlns="http://www.w3.org/2000/svg">
<path d="M17 9.2C17.3866 9.2 17.7 8.8866 17.7 8.5C17.7 8.1134 17.3866 7.8 17 7.8V9.2ZM0.505026 8.00503C0.231659 8.27839 0.231659 8.72161 0.505026 8.99497L4.9598 13.4497C5.23316 13.7231 5.67638 13.7231 5.94975 13.4497C6.22311 13.1764 6.22311 12.7332 5.94975 12.4598L1.98995 8.5L5.94975 4.5402C6.22311 4.26684 6.22311 3.82362 5.94975 3.55025C5.67638 3.27689 5.23316 3.27689 4.9598 3.55025L0.505026 8.00503ZM17 7.8L1 7.8V9.2L17 9.2V7.8Z" fill="#0062C7"/>
</svg>
