<svg width="18" height="16" viewBox="0 0 18 16" fill="none" xmlns="http://www.w3.org/2000/svg">
<path d="M1 7.8C0.613401 7.8 0.3 8.1134 0.3 8.5C0.3 8.8866 0.613401 9.2 1 9.2V7.8ZM17.495 8.99497C17.7683 8.72161 17.7683 8.27839 17.495 8.00503L13.0402 3.55025C12.7668 3.27689 12.3236 3.27689 12.0503 3.55025C11.7769 3.82362 11.7769 4.26684 12.0503 4.5402L16.0101 8.5L12.0503 12.4598C11.7769 12.7332 11.7769 13.1764 12.0503 13.4497C12.3236 13.7231 12.7668 13.7231 13.0402 13.4497L17.495 8.99497ZM1 9.2H17V7.8H1V9.2Z" fill="#0062C7"/>
</svg>
