<svg width="22" height="22" viewBox="0 0 22 22" fill="none" xmlns="http://www.w3.org/2000/svg">
<rect width="22" height="22" rx="11" fill="#AFCEED"/>
<path d="M11 12.0646L7.27376 15.7909C7.13435 15.9303 6.95691 16 6.74144 16C6.52598 16 6.34854 15.9303 6.20913 15.7909C6.06971 15.6515 6 15.474 6 15.2586C6 15.0431 6.06971 14.8657 6.20913 14.7262L9.93536 11L6.20913 7.27376C6.06971 7.13435 6 6.95691 6 6.74144C6 6.52598 6.06971 6.34854 6.20913 6.20913C6.34854 6.06971 6.52598 6 6.74144 6C6.95691 6 7.13435 6.06971 7.27376 6.20913L11 9.93536L14.7262 6.20913C14.8657 6.06971 15.0431 6 15.2586 6C15.474 6 15.6515 6.06971 15.7909 6.20913C15.9303 6.34854 16 6.52598 16 6.74144C16 6.95691 15.9303 7.13435 15.7909 7.27376L12.0646 11L15.7909 14.7262C15.9303 14.8657 16 15.0431 16 15.2586C16 15.474 15.9303 15.6515 15.7909 15.7909C15.6515 15.9303 15.474 16 15.2586 16C15.0431 16 14.8657 15.9303 14.7262 15.7909L11 12.0646Z" fill="white"/>
</svg>
