<svg width="16" height="17" viewBox="0 0 16 17" fill="none" xmlns="http://www.w3.org/2000/svg">
<path fill-rule="evenodd" clip-rule="evenodd" d="M8 16.5C12.4182 16.5 16 12.9182 16 8.5C16 4.08172 12.4182 0.5 8 0.5C3.58172 0.5 0 4.08172 0 8.5C0 12.9182 3.58172 16.5 8 16.5ZM8.6 5.3C8.6 4.96863 8.33136 4.7 8 4.7C7.66864 4.7 7.4 4.96863 7.4 5.3V8.5C7.4 8.65912 7.4632 8.81176 7.57576 8.92424L9.57576 10.9242C9.81008 11.1586 10.1899 11.1586 10.4242 10.9242C10.6586 10.6899 10.6586 10.3101 10.4242 10.0758L8.6 8.25144V5.3Z" fill="#2C7DD1"/>
</svg>
