<svg width="14" height="14" viewBox="0 0 14 14" fill="none" xmlns="http://www.w3.org/2000/svg">
<rect width="14" height="14" rx="7" fill="#E1573F"/>
<path d="M7 7.53232L5.13688 9.39544C5.06717 9.46515 4.97845 9.5 4.87072 9.5C4.76299 9.5 4.67427 9.46515 4.60456 9.39544C4.53485 9.32573 4.5 9.23701 4.5 9.12928C4.5 9.02155 4.53485 8.93283 4.60456 8.86312L6.46768 7L4.60456 5.13688C4.53485 5.06717 4.5 4.97845 4.5 4.87072C4.5 4.76299 4.53485 4.67427 4.60456 4.60456C4.67427 4.53485 4.76299 4.5 4.87072 4.5C4.97845 4.5 5.06717 4.53485 5.13688 4.60456L7 6.46768L8.86312 4.60456C8.93283 4.53485 9.02155 4.5 9.12928 4.5C9.23701 4.5 9.32573 4.53485 9.39544 4.60456C9.46515 4.67427 9.5 4.76299 9.5 4.87072C9.5 4.97845 9.46515 5.06717 9.39544 5.13688L7.53232 7L9.39544 8.86312C9.46515 8.93283 9.5 9.02155 9.5 9.12928C9.5 9.23701 9.46515 9.32573 9.39544 9.39544C9.32573 9.46515 9.23701 9.5 9.12928 9.5C9.02155 9.5 8.93283 9.46515 8.86312 9.39544L7 7.53232Z" fill="white"/>
</svg>
