<svg width="16" height="16" viewBox="0 0 16 16" fill="none" xmlns="http://www.w3.org/2000/svg">
<path d="M6.69444 1C6.09613 1 5.61111 1.50372 5.61111 2.1251V2.87516C5.61111 3.49653 6.09613 4.00025 6.69444 4.00025H10.3056C10.9038 4.00025 11.3889 3.49653 11.3889 2.87516V2.1251C11.3889 1.50372 10.9038 1 10.3056 1H6.69444Z" fill="#0062C7"/>
<path fill-rule="evenodd" clip-rule="evenodd" d="M4.52778 2.52759C3.61929 2.58053 3.04576 2.73088 2.6346 3.15789C2 3.81695 2 4.8777 2 6.9992V11.4996C2 13.6211 2 14.6818 2.6346 15.3409C3.2692 16 4.29058 16 6.33333 16H10.6667C12.7094 16 13.7308 16 14.3654 15.3409C15 14.6818 15 13.6211 15 11.4996V6.9992C15 4.8777 15 3.81695 14.3654 3.15789C13.9542 2.73088 13.3807 2.58053 12.4722 2.52759V2.87516C12.4722 4.1179 11.5022 5.12535 10.3056 5.12535H6.69444C5.49783 5.12535 4.52778 4.1179 4.52778 2.87516V2.52759ZM4.88889 6.81299C4.58974 6.81299 4.34722 7.06487 4.34722 7.37554C4.34722 7.68622 4.58974 7.93809 4.88889 7.93809H5.25C5.54915 7.93809 5.79167 7.68622 5.79167 7.37554C5.79167 7.06487 5.54915 6.81299 5.25 6.81299H4.88889ZM7.41667 6.81299C7.11752 6.81299 6.875 7.06487 6.875 7.37554C6.875 7.68622 7.11752 7.93809 7.41667 7.93809H12.1111C12.4103 7.93809 12.6528 7.68622 12.6528 7.37554C12.6528 7.06487 12.4103 6.81299 12.1111 6.81299H7.41667ZM4.88889 9.43822C4.58974 9.43822 4.34722 9.69009 4.34722 10.0008C4.34722 10.3114 4.58974 10.5633 4.88889 10.5633H5.25C5.54915 10.5633 5.79167 10.3114 5.79167 10.0008C5.79167 9.69009 5.54915 9.43822 5.25 9.43822H4.88889ZM7.41667 9.43822C7.11752 9.43822 6.875 9.69009 6.875 10.0008C6.875 10.3114 7.11752 10.5633 7.41667 10.5633H12.1111C12.4103 10.5633 12.6528 10.3114 12.6528 10.0008C12.6528 9.69009 12.4103 9.43822 12.1111 9.43822H7.41667ZM4.88889 12.0634C4.58974 12.0634 4.34722 12.3153 4.34722 12.626C4.34722 12.9367 4.58974 13.1885 4.88889 13.1885H5.25C5.54915 13.1885 5.79167 12.9367 5.79167 12.626C5.79167 12.3153 5.54915 12.0634 5.25 12.0634H4.88889ZM7.41667 12.0634C7.11752 12.0634 6.875 12.3153 6.875 12.626C6.875 12.9367 7.11752 13.1885 7.41667 13.1885H12.1111C12.4103 13.1885 12.6528 12.9367 12.6528 12.626C12.6528 12.3153 12.4103 12.0634 12.1111 12.0634H7.41667Z" fill="#0062C7"/>
</svg>
