<svg width="26" height="27" viewBox="0 0 26 27" fill="none" xmlns="http://www.w3.org/2000/svg">
<path fill-rule="evenodd" clip-rule="evenodd" d="M13 26.5C20.1796 26.5 26 20.6796 26 13.5C26 6.32029 20.1796 0.5 13 0.5C5.82029 0.5 0 6.32029 0 13.5C0 20.6796 5.82029 26.5 13 26.5ZM13.975 8.3C13.975 7.76153 13.5385 7.325 13 7.325C12.4615 7.325 12.025 7.76153 12.025 8.3V13.5C12.025 13.7586 12.1277 14.0066 12.3106 14.1894L15.5606 17.4394C15.9414 17.8202 16.5586 17.8202 16.9394 17.4394C17.3202 17.0586 17.3202 16.4414 16.9394 16.0606L13.975 13.0961V8.3Z" fill="#AFCEED"/>
</svg>
