<svg width="16" height="16" viewBox="0 0 16 16" fill="none" xmlns="http://www.w3.org/2000/svg">
<path fill-rule="evenodd" clip-rule="evenodd" d="M8 15C11.866 15 15 11.866 15 8C15 4.13401 11.866 1 8 1C4.13401 1 1 4.13401 1 8C1 11.866 4.13401 15 8 15ZM8.525 5.2C8.525 4.91005 8.28994 4.675 8 4.675C7.71006 4.675 7.475 4.91005 7.475 5.2V8C7.475 8.13923 7.5303 8.27279 7.62879 8.37121L9.37879 10.1212C9.58382 10.3262 9.91618 10.3262 10.1212 10.1212C10.3262 9.91618 10.3262 9.58382 10.1212 9.37879L8.525 7.78251V5.2Z" fill="#0062C7"/>
</svg>
