<svg width="18" height="12" viewBox="0 0 18 12" fill="none" xmlns="http://www.w3.org/2000/svg">
<path d="M14.7427 2.35L10.447 6.93967L10.5565 7.04217L10.447 6.93967C10.0616 7.35153 9.82176 7.60554 9.62506 7.76592C9.45002 7.90864 9.39055 7.90781 9.37711 7.90762C9.37668 7.90762 9.3763 7.90761 9.37596 7.90761C9.37563 7.90761 9.37525 7.90762 9.37482 7.90762C9.36139 7.90781 9.30192 7.90864 9.12689 7.76586C8.93025 7.60539 8.69042 7.35136 8.3051 6.93949C8.30509 6.93948 8.30508 6.93947 8.30507 6.93946L8.10105 6.72125L8.10101 6.72121L8.0926 6.71222C7.74932 6.34532 7.44336 6.01829 7.16273 5.78938L14.7427 2.35ZM14.7427 2.35H12.2877C11.8865 2.35 11.5796 2.0038 11.5796 1.6C11.5796 1.1962 11.8865 0.85 12.2877 0.85H16.4419C16.843 0.85 17.15 1.19619 17.15 1.6V6.03665C17.15 6.44045 16.843 6.78665 16.4419 6.78665C16.0407 6.78665 15.7337 6.44045 15.7337 6.03665V3.42207L11.4271 8.02355L11.3175 7.92105L11.4271 8.02356L11.4195 8.03159C11.0761 8.3985 10.7701 8.72548 10.4893 8.95442L10.3945 8.83818L10.4893 8.95442C10.1839 9.20348 9.82558 9.40762 9.37581 9.40762H9.37578C8.92601 9.40753 8.56775 9.20329 8.26236 8.95417L8.26233 8.95415C7.98095 8.72453 7.67412 8.39645 7.3297 8.02817L7.32491 8.02305L7.32489 8.02303L7.12081 7.80489L7.1208 7.80488C6.73511 7.39256 6.4951 7.13831 6.29827 6.97777L6.29825 6.97776C6.12302 6.83478 6.06358 6.83571 6.05026 6.83592C6.04983 6.83592 6.04946 6.83593 6.04912 6.83593H6.04892C6.04858 6.83593 6.0482 6.83593 6.04777 6.83592C6.03434 6.83573 5.97485 6.83489 5.79981 6.97792C5.60307 7.1387 5.36321 7.39313 4.97782 7.80576L4.97781 7.80577L2.06159 10.9275C1.78367 11.2251 1.32928 11.224 1.05261 10.9253C0.78169 10.6329 0.782549 10.1638 1.05469 9.8725C1.05469 9.8725 1.05469 9.87249 1.0547 9.87249L3.99686 6.72282L4.00328 6.71594C4.34712 6.34784 4.65348 6.01985 4.9345 5.79026C4.9345 5.79025 4.9345 5.79025 4.9345 5.79025L14.7427 2.35Z" fill="#1A1A1A" stroke="#1A1A1A" stroke-width="0.3"/>
</svg>
