<svg width="15" height="20" viewBox="0 0 15 20" fill="none" xmlns="http://www.w3.org/2000/svg">
<path fill-rule="evenodd" clip-rule="evenodd" d="M7.5 0C3.35786 0 0 3.43595 0 7.67442C0 9.9468 0.96602 11.9892 2.49859 13.3934C3.0094 13.8614 3.38782 14.2082 3.65601 14.4598C3.7901 14.5855 3.89262 14.6838 3.9683 14.7592C4.00601 14.7968 4.03486 14.8266 4.05635 14.8496C4.06699 14.861 4.07499 14.8699 4.0808 14.8766C4.08649 14.8831 4.0892 14.8864 4.0892 14.8864C4.32571 15.1851 4.3769 15.2622 4.40739 15.332C4.43787 15.4018 4.45982 15.4922 4.51949 15.8717C4.54305 16.0216 4.54545 16.2782 4.54545 16.9767V17.0067C4.54544 17.4158 4.54543 17.7687 4.57107 18.0583C4.5982 18.3645 4.65825 18.6677 4.81949 18.9535C4.99902 19.2717 5.25723 19.5359 5.56818 19.7196C5.84747 19.8846 6.1438 19.946 6.443 19.9738C6.726 20 7.0709 20 7.4707 20H7.5293C7.9291 20 8.274 20 8.557 19.9738C8.8562 19.946 9.1525 19.8846 9.4318 19.7196C9.7428 19.5359 10.001 19.2717 10.1805 18.9535C10.3418 18.6677 10.4018 18.3645 10.4289 18.0583C10.4546 17.7687 10.4546 17.4158 10.4545 17.0067V16.9767C10.4545 16.2782 10.457 16.0216 10.4805 15.8717C10.5402 15.4922 10.5621 15.4018 10.5926 15.332C10.6231 15.2622 10.6743 15.1851 10.9108 14.8864C10.9108 14.8864 10.9118 14.8852 10.914 14.8826C10.914 14.8826 10.917 14.8791 10.9192 14.8766C10.925 14.8699 10.933 14.861 10.9436 14.8496C10.9651 14.8266 10.994 14.7968 11.0317 14.7592C11.1074 14.6838 11.2099 14.5855 11.344 14.4598C11.6122 14.2082 11.9906 13.8614 12.5014 13.3934C14.034 11.9892 15 9.9468 15 7.67442C15 3.43595 11.6421 0 7.5 0ZM9.0709 17.9323C9.0776 17.8561 9.0821 17.7714 9.0851 17.6744H5.91494C5.91791 17.7714 5.92239 17.8561 5.92914 17.9323C5.9477 18.1418 5.97899 18.2178 6.0004 18.2558C6.0603 18.3619 6.1463 18.4499 6.25 18.5112C6.2871 18.5331 6.3615 18.5651 6.5661 18.5841C6.7802 18.604 7.0626 18.6047 7.5 18.6047C7.9374 18.6047 8.2198 18.604 8.4339 18.5841C8.6385 18.5651 8.7129 18.5331 8.75 18.5112C8.8537 18.4499 8.9397 18.3619 8.9996 18.2558C9.021 18.2178 9.0523 18.1418 9.0709 17.9323Z" fill="#FEC400"/>
<path fill-rule="evenodd" clip-rule="evenodd" d="M5.27375 11.3508C5.63229 11.1434 6.0911 11.2659 6.2985 11.6245C6.5158 12 6.92 12.25 7.3817 12.25C7.8435 12.25 8.2477 12 8.465 11.6245C8.6724 11.2659 9.1312 11.1434 9.4897 11.3508C9.8483 11.5582 9.9708 12.017 9.7634 12.3755C9.4101 12.9862 8.8271 13.4496 8.1317 13.6464V15C8.1317 15.4142 7.7959 15.75 7.3817 15.75C6.9675 15.75 6.6317 15.4142 6.6317 15V13.6464C5.93629 13.4496 5.35336 12.9862 5.00009 12.3755C4.79268 12.017 4.9152 11.5582 5.27375 11.3508Z" fill="white"/>
</svg>
