<svg width="20" height="20" viewBox="0 0 20 20" fill="none" xmlns="http://www.w3.org/2000/svg">
<path d="M1 10C1 5.02944 5.02944 1 10 1C14.9706 1 19 5.02944 19 10C19 14.9706 14.9706 19 10 19C5.02944 19 1 14.9706 1 10Z" fill="#E1573F" stroke="#E1573F" stroke-width="2"/>
<path d="M10 10.8517L7.01901 13.8327C6.90748 13.9442 6.76553 14 6.59316 14C6.42079 14 6.27883 13.9442 6.1673 13.8327C6.05577 13.7212 6 13.5792 6 13.4068C6 13.2345 6.05577 13.0925 6.1673 12.981L9.14829 10L6.1673 7.01901C6.05577 6.90748 6 6.76553 6 6.59316C6 6.42079 6.05577 6.27883 6.1673 6.1673C6.27883 6.05577 6.42079 6 6.59316 6C6.76553 6 6.90748 6.05577 7.01901 6.1673L10 9.14829L12.981 6.1673C13.0925 6.05577 13.2345 6 13.4068 6C13.5792 6 13.7212 6.05577 13.8327 6.1673C13.9442 6.27883 14 6.42079 14 6.59316C14 6.76553 13.9442 6.90748 13.8327 7.01901L10.8517 10L13.8327 12.981C13.9442 13.0925 14 13.2345 14 13.4068C14 13.5792 13.9442 13.7212 13.8327 13.8327C13.7212 13.9442 13.5792 14 13.4068 14C13.2345 14 13.0925 13.9442 12.981 13.8327L10 10.8517Z" fill="white"/>
</svg>
