<svg width="12" height="12" viewBox="0 0 12 12" fill="none" xmlns="http://www.w3.org/2000/svg">
<path d="M5.64007 9.6967L10.0776 5.25917C9.47365 5.00783 8.75833 4.59491 8.08183 3.9184C7.40521 3.24178 6.99223 2.52635 6.74089 1.92234L2.30329 6.35993C1.95702 6.70625 1.78384 6.87941 1.63494 7.07027C1.45928 7.29551 1.30869 7.53917 1.18581 7.79699C1.08164 8.01557 1.00421 8.24789 0.849337 8.71247L0.0326696 11.1625C-0.0435425 11.3911 0.0159597 11.6432 0.186378 11.8136C0.356796 11.984 0.608868 12.0435 0.837505 11.9673L3.28751 11.1506C3.75211 10.9958 3.98442 10.9184 4.20299 10.8142C4.46082 10.6913 4.7045 10.5407 4.92973 10.365C5.12059 10.2161 5.29381 10.043 5.64007 9.6967Z" fill="#1A1A1A"/>
<path d="M11.3089 4.02783C12.2304 3.10641 12.2304 1.61249 11.3089 0.691068C10.3875 -0.230356 8.89357 -0.230356 7.97215 0.691068L7.43995 1.22329C7.44727 1.2453 7.45477 1.26761 7.46263 1.29021C7.65769 1.8525 8.02579 2.5896 8.71819 3.28201C9.41059 3.97441 10.1477 4.34249 10.71 4.53757C10.7325 4.54537 10.7547 4.5529 10.7766 4.56015L11.3089 4.02783Z" fill="#1A1A1A"/>
</svg>
