<svg width="40" height="40" viewBox="0 0 40 40" fill="none" xmlns="http://www.w3.org/2000/svg">
<rect width="40" height="40" rx="20" fill="#B8B8B8"/>
<path d="M20 21.2776L15.5285 25.749C15.3612 25.9163 15.1483 26 14.8897 26C14.6312 26 14.4183 25.9163 14.251 25.749C14.0836 25.5817 14 25.3688 14 25.1103C14 24.8517 14.0836 24.6388 14.251 24.4715L18.7224 20L14.251 15.5285C14.0836 15.3612 14 15.1483 14 14.8897C14 14.6312 14.0836 14.4183 14.251 14.251C14.4183 14.0836 14.6312 14 14.8897 14C15.1483 14 15.3612 14.0836 15.5285 14.251L20 18.7224L24.4715 14.251C24.6388 14.0836 24.8517 14 25.1103 14C25.3688 14 25.5817 14.0836 25.749 14.251C25.9163 14.4183 26 14.6312 26 14.8897C26 15.1483 25.9163 15.3612 25.749 15.5285L21.2776 20L25.749 24.4715C25.9163 24.6388 26 24.8517 26 25.1103C26 25.3688 25.9163 25.5817 25.749 25.749C25.5817 25.9163 25.3688 26 25.1103 26C24.8517 26 24.6388 25.9163 24.4715 25.749L20 21.2776Z" fill="white"/>
</svg>
