<svg width="14" height="14" viewBox="0 0 14 14" fill="none" xmlns="http://www.w3.org/2000/svg">
<path d="M13.0002 13.0002L10.1049 10.1049M10.1049 10.1049C10.6001 9.60959 10.993 9.02163 11.261 8.37454C11.529 7.72745 11.667 7.03391 11.667 6.3335C11.667 5.6331 11.529 4.93955 11.261 4.29246C10.993 3.64537 10.6001 3.05741 10.1049 2.56215C9.60959 2.06689 9.02163 1.67402 8.37454 1.40599C7.72745 1.13796 7.03391 1 6.3335 1C5.6331 1 4.93955 1.13796 4.29246 1.40599C3.64537 1.67402 3.05741 2.06689 2.56215 2.56215C1.56192 3.56237 1 4.91897 1 6.3335C1 7.74803 1.56192 9.10463 2.56215 10.1049C3.56237 11.1051 4.91897 11.667 6.3335 11.667C7.74803 11.667 9.10463 11.1051 10.1049 10.1049Z" stroke="white" stroke-width="1.5" stroke-linecap="round" stroke-linejoin="round"/>
</svg>
