<svg width="26" height="26" viewBox="0 0 26 26" fill="none" xmlns="http://www.w3.org/2000/svg">
<rect width="26" height="26" rx="13" fill="white" fill-opacity="0.3"/>
<path fill-rule="evenodd" clip-rule="evenodd" d="M13 20C16.866 20 20 16.866 20 13C20 9.13401 16.866 6 13 6C9.13401 6 6 9.13401 6 13C6 16.866 9.13401 20 13 20ZM13.525 10.2C13.525 9.91005 13.2899 9.675 13 9.675C12.7101 9.675 12.475 9.91005 12.475 10.2V13C12.475 13.1392 12.5303 13.2728 12.6288 13.3712L14.3788 15.1212C14.5838 15.3262 14.9162 15.3262 15.1212 15.1212C15.3262 14.9162 15.3262 14.5838 15.1212 14.3788L13.525 12.7825V10.2Z" fill="white"/>
</svg>
