<svg width="24" height="25" viewBox="0 0 24 25" fill="none" xmlns="http://www.w3.org/2000/svg">
<circle cx="12" cy="12.5" r="12" fill="white"/>
<path d="M12 5.5C12 4.94772 12.4494 4.49356 12.9974 4.56242C14.2262 4.71683 15.4072 5.15513 16.4446 5.84824C17.7602 6.72729 18.7855 7.97672 19.391 9.43853C19.9965 10.9003 20.155 12.5089 19.8463 14.0607C19.5376 15.6126 18.7757 17.038 17.6569 18.1569C16.538 19.2757 15.1126 20.0376 13.5607 20.3463C12.0089 20.655 10.4003 20.4965 8.93854 19.891C7.47673 19.2855 6.2273 18.2602 5.34825 16.9446C4.65513 15.9073 4.21683 14.7262 4.06242 13.4974C3.99356 12.9495 4.44772 12.5 5 12.5L12 12.5V5.5Z" fill="#0062C7"/>
</svg>
