<svg width="24" height="24" viewBox="0 0 24 24" fill="none" xmlns="http://www.w3.org/2000/svg">
<path d="M21.9084 0.12268C21.6655 0.244575 16.1931 4.60935 16.1931 4.67498C16.1931 4.69374 16.8789 5.38291 17.7172 6.20804L19.2412 7.70829L19.3555 7.59108C19.7318 7.20664 23.7658 2.2699 23.8754 2.05893C24.004 1.81983 24.0087 1.76826 23.9944 1.37913C23.9706 0.910308 23.9135 0.760284 23.6372 0.460235C23.3324 0.132057 23.0943 0.0242269 22.599 0.00547364C22.2037 -0.00859103 22.1513 -0.003903 21.9084 0.12268Z" fill="#0062C7"/>
<path d="M14.5261 5.97832C13.7498 6.61124 13.5498 6.81752 13.364 7.16445C13.1021 7.66141 13.1021 7.64734 13.445 7.74579C14.2309 7.97552 15.112 8.60375 15.5787 9.27886C15.7883 9.58359 16.0788 10.179 16.1502 10.4509C16.2217 10.7182 16.2169 10.7182 16.6694 10.5072C16.9742 10.3665 17.4647 9.89771 18.022 9.21791L18.3982 8.75377L16.7599 7.14101C15.8597 6.25493 15.112 5.52825 15.0977 5.53293C15.0834 5.53293 14.8262 5.73453 14.5261 5.97832Z" fill="#0062C7"/>
<path d="M2.405 5.96894C1.87634 6.13303 1.43817 6.49872 1.21909 6.95817C1.14764 7.09881 1.07144 7.37073 1.04763 7.55358C1.02381 7.74579 1 9.9024 1 12.4997V17.1083H20.9558V12.4575C20.9558 8.53342 20.9463 7.81612 20.8891 7.87238C20.8558 7.90988 20.2557 8.63188 19.5556 9.48045C18.7173 10.4931 18.1792 11.1026 17.9696 11.2714C17.5981 11.5761 17.098 11.8386 16.6503 11.9746C16.4693 12.0309 16.3026 12.1059 16.2836 12.1434C16.2645 12.1809 16.2121 12.3778 16.1693 12.5794C16.0026 13.3201 15.4311 14.225 14.8214 14.6938C14.0261 15.308 13.1592 15.5611 11.8114 15.5611C10.9827 15.5611 10.554 15.6408 10.2159 15.8518C9.70626 16.1659 9.6253 16.194 9.16807 16.194C8.6537 16.194 8.4108 16.1003 8.04883 15.7674C7.43444 15.2048 7.35824 14.3938 7.84404 13.6436C8.11551 13.2264 8.14885 13.0623 8.19172 11.9277C8.23934 10.7275 8.30602 10.3853 8.63941 9.72424C9.00138 9.01163 9.46813 8.52405 10.1921 8.10679C10.5112 7.92395 11.2303 7.67078 11.578 7.61452C11.7352 7.59108 11.759 7.57233 11.7876 7.41293C11.84 7.13632 12.0829 6.60186 12.3115 6.25493C12.4305 6.08146 12.5258 5.92675 12.5258 5.92206C12.5258 5.91268 10.2921 5.90331 7.56304 5.908C3.69094 5.908 2.55265 5.92206 2.405 5.96894Z" fill="#0062C7"/>
<path d="M11.7257 8.95537C11.0303 9.06788 10.2968 9.56953 9.93964 10.1696C9.7015 10.5775 9.62053 10.9948 9.57291 12.0918C9.52052 13.3576 9.4205 13.789 9.04901 14.3187C8.88231 14.5532 8.86802 14.6704 8.99185 14.7782C9.11568 14.8907 9.2157 14.8766 9.45384 14.7172C10.0016 14.3469 10.4159 14.2531 11.6923 14.2015C13.1259 14.1453 13.5498 14.0234 14.107 13.5077C14.5166 13.1326 14.8024 12.6028 14.9072 12.0262C14.9738 11.6511 14.9643 11.4308 14.8833 11.037C14.5785 9.61641 13.2069 8.71158 11.7257 8.95537Z" fill="#0062C7"/>
<path d="M1 18.7351C1.00953 19.7899 1.36673 20.451 2.13353 20.8214L2.45263 20.9761L8.3346 21.0042V22.5935H7.62495C6.97246 22.5935 6.91054 22.6029 6.7629 22.7014C6.32949 22.992 6.32949 23.6015 6.7629 23.8922L6.92007 24H10.9922C15.0405 24 15.0643 24 15.2263 23.9015C15.4311 23.775 15.5454 23.564 15.5454 23.2968C15.5454 23.0295 15.4311 22.8186 15.2263 22.692C15.0786 22.6029 14.9929 22.5935 14.3404 22.5935H13.6212V21.0042L19.5032 20.9761L19.7794 20.8682C20.1652 20.7135 20.5796 20.3244 20.7748 19.9306C20.9225 19.6399 20.932 19.5837 20.9511 19.0445L20.9653 18.4679H1V18.7351Z" fill="#0062C7"/>
</svg>
