<svg width="24" height="24" viewBox="0 0 24 24" fill="none" xmlns="http://www.w3.org/2000/svg">
<path d="M1.27882 1.08164C1.21006 1.12891 1.1198 1.22344 1.07253 1.29219C0.995165 1.4125 0.995165 1.73047 1.00376 11.5746L1.01665 21.7324L1.14989 22.0117C1.31321 22.3555 1.60976 22.6605 1.95788 22.841C2.20716 22.9742 2.24154 22.9785 2.7143 22.9785C3.17417 22.9785 3.22574 22.9699 3.46642 22.8539C3.79736 22.6906 4.12399 22.3641 4.28301 22.0332C4.40765 21.7797 4.41195 21.7625 4.43774 20.8516C4.45493 20.3445 4.48931 19.8418 4.5194 19.7344C4.60965 19.4078 4.77727 19.1285 5.03943 18.8664C5.34888 18.5527 5.7142 18.3766 6.15687 18.3164C6.34598 18.2949 8.58945 18.2734 11.6882 18.2734H16.8972V13.7445L16.6522 13.9852C16.5147 14.1141 15.8614 14.7414 15.1995 15.3687C14.1723 16.3484 13.9532 16.5375 13.6953 16.6664C13.2612 16.877 12.9561 16.907 11.1811 16.8898C9.4834 16.877 9.47481 16.8727 9.2943 16.5848C9.11379 16.2883 9.20834 15.9102 9.50489 15.7254C9.63813 15.6438 9.72838 15.6309 10.3559 15.618C11.0521 15.6008 11.0607 15.5965 11.0306 15.5063C11.0134 15.459 10.9919 15.2613 10.9791 15.068C10.949 14.6254 10.9919 14.4836 11.4518 13.4395L11.8128 12.623L4.06812 12.5801L3.9177 12.4855C3.61685 12.3008 3.52659 11.9227 3.7071 11.6262C3.90051 11.3168 3.59536 11.3383 8.23273 11.3125L12.393 11.291L12.6681 10.668C12.8185 10.3285 12.9432 10.0406 12.9432 10.0363C12.9432 10.032 10.9447 10.0191 8.50779 10.0148C4.15408 10.002 4.06382 10.002 3.92629 9.91602C3.5137 9.6668 3.518 9.05664 3.93059 8.82891C4.05953 8.76016 4.42484 8.75586 8.96766 8.74297L13.8672 8.73008L15.3843 6.56016L16.8972 4.39023V2.89922C16.8972 1.51133 16.8929 1.39961 16.8155 1.28359C16.7725 1.21914 16.678 1.12461 16.6135 1.08164C16.4932 1.0043 16.2611 1 8.94617 1C1.59686 1 1.39916 1.0043 1.27882 1.08164ZM11.3959 3.69414C11.5936 3.81445 11.6968 3.99922 11.6968 4.22266C11.6968 4.44609 11.5936 4.63086 11.3959 4.75117C11.2455 4.8457 11.2326 4.8457 8.94617 4.8457C6.72419 4.8457 6.64253 4.84141 6.505 4.75977C6.3116 4.64375 6.19555 4.44609 6.19555 4.22695C6.19555 3.91328 6.37177 3.69414 6.68981 3.6168C6.75857 3.59961 7.81584 3.58672 9.03213 3.59101C11.224 3.59961 11.2455 3.59961 11.3959 3.69414ZM13.9746 6.27227C14.1723 6.39258 14.2755 6.57734 14.2755 6.80078C14.2755 7.02422 14.1723 7.20898 13.9746 7.3293L13.8242 7.42383H8.94617C4.14548 7.42383 4.06382 7.42383 3.92629 7.33789C3.73289 7.22187 3.61685 7.02422 3.61685 6.80508C3.61685 6.49141 3.79736 6.27227 4.1111 6.19492C4.17987 6.17773 6.39755 6.16914 9.03213 6.16914L13.8242 6.17773L13.9746 6.27227ZM7.95767 14.0066C8.15537 14.127 8.25852 14.3117 8.25852 14.5352C8.25852 14.7586 8.15537 14.9434 7.95767 15.0637C7.80725 15.1582 7.78576 15.1582 5.93768 15.1582C4.14548 15.1582 4.06382 15.1539 3.92629 15.0723C3.73289 14.9563 3.61685 14.7586 3.61685 14.5395C3.61685 14.2258 3.79306 14.0066 4.1111 13.9293C4.17987 13.9121 5.04373 13.8992 6.02364 13.9035C7.77716 13.9121 7.81154 13.9121 7.95767 14.0066Z" fill="#0062C7"/>
<path d="M20.9329 1.22773C20.5632 1.38242 20.4128 1.52422 20.0088 2.0957C19.5747 2.71016 19.4931 2.83906 19.5189 2.86055C19.6349 2.96797 21.9214 4.53633 21.9643 4.54062C22.0503 4.54492 22.8067 3.475 22.9185 3.19141C23.0474 2.84766 23.0216 2.27617 22.854 1.95391C22.5875 1.43398 22.1448 1.15898 21.5389 1.1375C21.2337 1.12891 21.1349 1.1418 20.9329 1.22773Z" fill="#0062C7"/>
<path d="M16.6178 6.94687C15.4359 8.63555 14.4689 10.032 14.4689 10.0492C14.4689 10.0922 16.8585 11.7809 16.923 11.7809C16.9616 11.7852 21.2208 5.76523 21.2724 5.64062C21.2853 5.61055 18.943 3.94336 18.8269 3.90039C18.7882 3.8875 18.049 4.90156 16.6178 6.94687Z" fill="#0062C7"/>
<path d="M13.7641 11.2566C13.734 11.3254 13.373 12.1418 12.9604 13.0828C12.1524 14.9219 12.1266 15.0164 12.2985 15.3C12.3458 15.3773 12.4446 15.4762 12.522 15.5234C12.7025 15.6309 13.0506 15.6395 13.2053 15.532C13.3558 15.4332 16.1021 12.8121 16.1021 12.7691C16.1021 12.7391 14.3615 11.4973 13.9059 11.2008C13.8242 11.1449 13.8113 11.1492 13.7641 11.2566Z" fill="#0062C7"/>
<path d="M6.00645 19.6441C5.75717 19.8117 5.73568 19.8934 5.7099 20.8301C5.67981 21.827 5.61105 22.1793 5.33599 22.6863L5.16837 23L18.251 22.9785L18.5089 22.8539C18.8398 22.6906 19.1664 22.3641 19.3298 22.0332C19.4544 21.7754 19.4544 21.7711 19.4673 20.8945C19.4845 19.9105 19.463 19.8117 19.1965 19.6484C19.059 19.5625 18.9558 19.5625 12.595 19.5625C6.3073 19.5625 6.12679 19.5668 6.00645 19.6441Z" fill="#0062C7"/>
</svg>
