<svg width="24" height="24" viewBox="0 0 24 24" fill="none" xmlns="http://www.w3.org/2000/svg">
<path d="M2.61071 2.08764C1.89866 2.31364 1.28973 2.92433 1.07857 3.62638C1.00982 3.86201 1 4.73717 1 12.0029C1 19.8313 1.00491 20.1247 1.0933 20.4084C1.3192 21.1152 1.93795 21.7163 2.66473 21.9231C2.90536 21.9904 3.86786 22 12.0049 22C20.7705 22 21.0848 21.9952 21.3746 21.9086C22.0964 21.6874 22.7103 21.0816 22.9214 20.3699C22.9902 20.1343 23 19.3601 23 13.1522C23 6.94431 22.9902 6.17013 22.9214 5.93451C22.7103 5.22284 22.0964 4.61695 21.3746 4.39576C21.0897 4.3092 20.8491 4.30439 16.3313 4.30439H11.5826L10.4777 3.21765C9.86875 2.62139 9.31384 2.10206 9.24018 2.06359C9.12723 2.00589 8.6067 1.99627 5.99911 2.00108C3.12143 2.00108 2.87098 2.00589 2.61071 2.08764ZM9.59375 4.62176C10.2027 5.21803 10.7576 5.73735 10.8313 5.77582C10.9442 5.83353 11.6906 5.84314 15.7665 5.84314C18.4723 5.84314 20.6527 5.86238 20.7607 5.89123C21.0013 5.94412 21.1781 6.06915 21.3058 6.28072C21.3893 6.42017 21.404 6.53077 21.404 6.9972C21.404 7.46364 21.3893 7.57423 21.3058 7.71368C21.1781 7.92526 21.0013 8.05029 20.7607 8.10318C20.5054 8.16569 3.49464 8.16569 3.23929 8.10318C2.99866 8.05029 2.82188 7.92526 2.6942 7.71368C2.60089 7.55981 2.59598 7.46364 2.59598 5.84314C2.59598 4.22265 2.60089 4.12648 2.6942 3.9726C2.81696 3.77064 2.99866 3.63119 3.21473 3.58311C3.30804 3.56387 4.5308 3.54464 5.93527 3.53983L8.48884 3.53502L9.59375 4.62176ZM13.9987 11.3971C14.1804 11.5173 14.308 11.7577 14.308 11.9885C14.308 12.1568 14.0527 12.6906 12.6826 15.3786C11.7888 17.1289 11.0228 18.6003 10.9737 18.6532C10.5366 19.1341 9.68705 18.8071 9.69688 18.1579C9.69688 17.9656 9.91295 17.5184 11.3518 14.715C12.5254 12.4309 13.046 11.4692 13.1344 11.4067C13.3946 11.224 13.7237 11.224 13.9987 11.3971ZM8.00268 12.1232C8.30714 12.2674 8.47902 12.6473 8.39554 12.9935C8.37098 13.0801 8.00759 13.4744 7.3692 14.1043L6.37723 15.0756L7.34464 16.0277C7.875 16.5471 8.3317 17.0231 8.36116 17.0808C8.49866 17.3453 8.37098 17.7829 8.11071 17.9656C7.94866 18.081 7.65402 18.1339 7.44777 18.0858C7.29554 18.0473 4.77634 15.6286 4.65357 15.4026C4.56518 15.2343 4.56518 14.9169 4.65357 14.7486C4.73214 14.6044 7.20714 12.1809 7.35938 12.0991C7.50179 12.0222 7.81116 12.0366 8.00268 12.1232ZM16.6308 12.0991C16.783 12.1761 19.258 14.5948 19.3464 14.7486C19.4348 14.9169 19.4348 15.2343 19.3464 15.4026C19.2237 15.6286 16.7045 18.0473 16.5522 18.0858C16.346 18.1339 16.0513 18.081 15.8893 17.9656C15.629 17.7829 15.5013 17.3453 15.6388 17.0808C15.6683 17.0231 16.125 16.5471 16.6554 16.0277L17.6228 15.0756L16.6308 14.1043C15.9924 13.4744 15.629 13.0801 15.6045 12.9935C15.521 12.6521 15.6879 12.2722 15.9875 12.128C16.1741 12.0366 16.4786 12.0222 16.6308 12.0991Z" fill="#0062C7"/>
</svg>
