<svg width="24" height="24" viewBox="0 0 24 24" fill="none" xmlns="http://www.w3.org/2000/svg">
<path d="M3.87062 2.01637C2.30558 2.21687 1.07555 3.08404 0.415532 4.46248C-0.00947844 5.33967 0.0255224 4.85847 0.00552194 10.7883C-0.00947844 16.5326 -0.0144786 16.3722 0.275529 17.099C0.795542 18.4023 1.85057 19.3496 3.2256 19.7356L3.62061 19.8509L16.1059 19.881L15.6559 19.3998C15.4109 19.1341 15.1359 18.7882 15.0509 18.6278C14.8709 18.282 14.3209 16.5727 14.2509 16.1216C14.1309 15.3747 14.4409 14.4675 15.0059 13.9261C15.2559 13.6855 15.7309 13.4198 16.1109 13.2995C16.6859 13.1241 17.161 13.1792 18.371 13.5552C18.921 13.7306 19.486 13.9261 19.621 14.0013C19.801 14.0965 20.456 14.7181 21.9111 16.1617L23.9461 18.1917V12.0564C23.9461 6.26698 23.9411 5.89104 23.8511 5.46498C23.6761 4.61285 23.2811 3.88604 22.6611 3.27451C22.0961 2.71311 21.4611 2.34218 20.671 2.12163L20.271 2.00635L12.1458 2.00133C7.67572 1.99632 3.95562 2.00635 3.87062 2.01637ZM5.37566 5.61535C5.88067 5.91109 5.93067 6.58277 5.48066 6.97876C5.05565 7.34968 4.38563 7.18928 4.16563 6.65796C3.85062 5.91109 4.67564 5.20433 5.37566 5.61535ZM19.281 5.67049C19.786 6.04643 19.766 6.74317 19.246 7.00382C19.081 7.08903 18.701 7.09405 13.4459 7.09405C7.96072 7.09405 7.81572 7.08903 7.66072 6.9938C7.36571 6.81836 7.22571 6.46748 7.31071 6.14167C7.36571 5.92613 7.62072 5.65044 7.82072 5.5953C7.90572 5.57024 10.4158 5.55019 13.5559 5.5552C19.136 5.56523 19.141 5.56523 19.281 5.67049ZM19.776 9.37975C20.031 9.57023 20.121 9.73564 20.121 10.0264C20.121 10.3171 20.031 10.4825 19.776 10.673C19.641 10.7782 19.636 10.7782 12.1208 10.7782H4.60064L4.46064 10.673C4.02062 10.3472 3.97562 9.82085 4.35563 9.46496C4.41563 9.40481 4.52564 9.33464 4.59564 9.30456C4.67564 9.27449 7.29071 9.25945 12.1808 9.26446C19.626 9.27449 19.641 9.27449 19.776 9.37975ZM12.6508 13.074C13.1459 13.4048 13.1759 13.9913 12.7158 14.3421L12.5308 14.4875H4.61064L4.43063 14.3472C4.33063 14.272 4.21063 14.1416 4.17063 14.0614C3.99562 13.7256 4.15063 13.2394 4.48564 13.0639C4.66564 12.9637 4.78564 12.9637 8.57574 12.9587H12.4808L12.6508 13.074Z" fill="#0062C7"/>
<path d="M16.1559 14.5176C15.6459 14.7682 15.3859 15.1893 15.3859 15.7607C15.3859 16.0263 15.4409 16.272 15.6659 16.9837C15.8209 17.475 15.9909 17.9562 16.0409 18.0614C16.1909 18.3471 20.676 22.8033 20.9211 22.9135C21.1911 23.0288 21.8011 23.0288 22.0711 22.9135C22.3711 22.7782 23.7261 21.4248 23.8761 21.104C24.0361 20.7732 24.0411 20.2068 23.8911 19.876C23.7611 19.5802 19.376 15.1642 19.071 15.0138C18.961 14.9587 18.471 14.7933 17.981 14.6379C16.8859 14.297 16.6259 14.282 16.1559 14.5176Z" fill="#0062C7"/>
</svg>
