<svg width="24" height="24" viewBox="0 0 24 24" fill="none" xmlns="http://www.w3.org/2000/svg">
<path d="M2.70254 1.10332C1.91641 1.37285 1.32793 1.96582 1.08984 2.74746C1.00898 3.00801 1 3.16973 1 4.71055V6.39062H24V4.69258C23.9955 3.05742 23.9955 2.99004 23.8967 2.70254C23.6227 1.89395 23.0162 1.31445 22.2076 1.07187C21.983 1.00898 21.0756 1 12.482 1L2.99902 1.00449L2.70254 1.10332ZM15.5277 3.15176C15.7209 3.28203 15.8242 3.46621 15.8242 3.69531C15.8242 3.92441 15.7209 4.10859 15.5277 4.23887C15.2537 4.41855 14.8449 4.31973 14.6518 4.02773C14.5484 3.87051 14.5395 3.56055 14.6338 3.38535C14.782 3.09336 15.2492 2.97207 15.5277 3.15176ZM18.223 3.15176C18.4162 3.28203 18.5195 3.46621 18.5195 3.69531C18.5195 3.92441 18.4162 4.10859 18.223 4.23887C17.949 4.41855 17.5402 4.31973 17.3471 4.02773C17.2437 3.87051 17.2348 3.56055 17.3291 3.38535C17.4773 3.09336 17.9445 2.97207 18.223 3.15176ZM20.9184 3.15176C21.1115 3.28203 21.2148 3.46621 21.2148 3.69531C21.2148 3.92441 21.1115 4.10859 20.9184 4.23887C20.6443 4.41855 20.2355 4.31973 20.0424 4.02773C19.9391 3.87051 19.9301 3.56055 20.0244 3.38535C20.1727 3.09336 20.6398 2.97207 20.9184 3.15176Z" fill="#0062C7"/>
<path d="M1 14.8539C1 21.7988 1 21.974 1.08984 22.2525C1.32793 23.0342 1.91641 23.6271 2.70254 23.8967L2.99902 23.9955L12.482 24C21.7854 24 21.974 24 22.2525 23.9102C23.0342 23.6721 23.6271 23.0836 23.8967 22.2975L23.9955 22.001L24 7.73828H1V14.8539ZM7.42383 10.9547C7.9584 11.1164 8.50195 11.4803 8.66367 11.7857C8.86582 12.1811 8.52891 12.6977 8.0707 12.6887C7.90449 12.6887 7.82812 12.6572 7.69785 12.5449C7.29355 12.199 6.69609 12.0598 6.20645 12.199C5.90547 12.2889 5.76172 12.4326 5.73027 12.6707C5.69434 12.9402 5.80215 13.0211 6.75 13.3939C7.2082 13.5781 7.68438 13.7848 7.81016 13.8521C8.69062 14.3463 9.09043 15.2312 8.81191 16.0623C8.60977 16.6687 8.08418 17.1719 7.42383 17.4055C7.00156 17.5492 6.2334 17.5492 5.76172 17.4055C4.77344 17.0955 4.03672 16.4576 4.12207 15.9904C4.16699 15.7613 4.38262 15.5232 4.59824 15.4648C4.84082 15.3975 5.03398 15.4648 5.31699 15.7164C5.72129 16.0758 6.23789 16.2555 6.73203 16.215C7.34746 16.1656 7.74277 15.7299 7.5541 15.3121C7.46875 15.1234 7.19922 14.9797 6.19297 14.5664C5.62246 14.3328 5.15078 14.1127 5.04297 14.0273C4.6791 13.7398 4.41406 13.1918 4.41406 12.7246C4.41406 12.0463 4.89023 11.3545 5.55508 11.058C6.07168 10.8334 6.8668 10.7885 7.42383 10.9547ZM13.1738 10.9232C13.3535 11.0176 13.5332 11.2961 13.5332 11.4803C13.5332 11.6914 13.3715 11.952 13.1738 12.0508C13.0166 12.1316 12.9088 12.1406 12.1182 12.1406H11.2422V13.5332H12.0418C12.7111 13.5332 12.8639 13.5467 12.9941 13.6141C13.4703 13.8521 13.4703 14.517 12.9941 14.7551C12.8639 14.8225 12.7111 14.8359 12.0418 14.8359H11.2422V16.2285H12.1316C12.9088 16.2285 13.0391 16.2375 13.1738 16.3139C13.3535 16.4082 13.5332 16.6867 13.5332 16.8709C13.5332 17.082 13.3715 17.3426 13.1693 17.4414C12.9986 17.5312 12.9268 17.5357 11.6914 17.5223C10.465 17.5088 10.3887 17.5043 10.2719 17.4145C10.2045 17.365 10.1057 17.2662 10.0563 17.1988C9.96191 17.0775 9.96191 17.0236 9.94844 14.3508C9.93945 12.8504 9.94844 11.5387 9.96191 11.4354C9.99336 11.2152 10.1641 10.9861 10.3662 10.9008C10.465 10.8559 10.8154 10.8424 11.7588 10.8379C12.8998 10.8379 13.0346 10.8469 13.1738 10.9232ZM18.4521 10.9727C19.6291 11.341 20.5141 12.2709 20.7971 13.4344C20.8914 13.8252 20.8914 14.5439 20.7971 14.9348C20.5141 16.1072 19.6246 17.0326 18.4297 17.401C17.9939 17.5357 17.1719 17.5492 16.7227 17.4279C16.0309 17.2437 15.2986 16.7541 14.8943 16.215C14.6203 15.8422 14.3553 15.2852 14.2744 14.9033C14.1891 14.5035 14.1891 13.8701 14.2744 13.4658C14.3553 13.0705 14.6742 12.4236 14.9572 12.0732C15.4469 11.4713 16.2105 11.0221 16.9832 10.8828C17.3426 10.8154 18.1018 10.8648 18.4521 10.9727ZM20.8555 19.6785C21.3316 19.9166 21.3316 20.5814 20.8555 20.8195C20.7072 20.8959 20.2176 20.9004 12.5 20.9004C4.78242 20.9004 4.29277 20.8959 4.14453 20.8195C4.05918 20.7791 3.94238 20.6758 3.88848 20.5904C3.68184 20.2805 3.80313 19.8492 4.14453 19.6785C4.29277 19.6021 4.78242 19.5977 12.5 19.5977C20.2176 19.5977 20.7072 19.6021 20.8555 19.6785Z" fill="#0062C7"/>
<path d="M17.082 12.19C16.5295 12.2979 15.9455 12.7785 15.676 13.34C15.5367 13.632 15.5322 13.668 15.5322 14.1846C15.5322 14.6967 15.5412 14.7416 15.676 15.0291C16.1746 16.0848 17.4145 16.5205 18.4611 16.0039C19.2383 15.6176 19.692 14.7371 19.5527 13.8701C19.3641 12.6977 18.277 11.9564 17.082 12.19Z" fill="#0062C7"/>
</svg>
