<svg width="24" height="24" viewBox="0 0 24 24" fill="none" xmlns="http://www.w3.org/2000/svg">
<path d="M7.64062 1.09883C7.36875 1.27852 7.3125 1.44473 7.3125 2.04219V2.57227H14.8125V2.06465C14.8125 1.47617 14.7281 1.23809 14.475 1.08984C14.325 1.00449 14.2453 1 11.0578 1H7.79531L7.64062 1.09883Z" fill="#0062C7"/>
<path d="M4.82344 3.97832C4.73438 4.03223 4.62656 4.14902 4.58437 4.23437C4.50469 4.38262 4.5 4.95312 4.5 14.1936V24H14.0297C23.2828 24 23.5594 23.9955 23.6906 23.9146C23.9063 23.7754 24 23.6002 24 23.3307C24 23.0477 23.8922 22.8545 23.6625 22.7197C23.5125 22.6344 23.4141 22.6299 20.5688 22.6164L17.625 22.6029V21.8258L16.8141 21.0396C14.6063 18.8879 13.3594 17.0551 13.0125 15.4469C12.8672 14.7865 12.9375 13.7533 13.1719 12.9896C13.7531 11.1209 15.3281 9.57109 17.25 8.98262L17.6016 8.8748V4.30176L17.4984 4.1625C17.2688 3.85703 17.7188 3.875 11.025 3.875H4.98281L4.82344 3.97832ZM9.69375 5.44726C10.1531 5.7168 10.1344 6.35019 9.65625 6.5793C9.52031 6.64668 9.36563 6.66015 8.79375 6.66015C7.97813 6.66015 7.80469 6.60176 7.64062 6.27832C7.51875 6.04023 7.52344 5.91445 7.65469 5.69883C7.83281 5.39785 7.97344 5.35742 8.8125 5.35742C9.45469 5.35742 9.55781 5.36641 9.69375 5.44726ZM14.2078 5.45625C14.5781 5.6539 14.6719 6.08965 14.4047 6.39062C14.1938 6.6332 14.0906 6.66015 13.3266 6.66015C12.5438 6.66015 12.3844 6.61523 12.2016 6.35019C12.0563 6.14355 12.0563 5.82012 12.1969 5.64941C12.4125 5.38437 12.5203 5.35742 13.3078 5.35742C13.9594 5.35742 14.0438 5.36641 14.2078 5.45625ZM9.65625 8.31777C10.1344 8.56035 10.1531 9.17578 9.69375 9.44531C9.55781 9.52617 9.45469 9.53515 8.78906 9.53515C7.92188 9.53515 7.80469 9.49922 7.63594 9.15781C7.51406 8.91973 7.54219 8.7041 7.72031 8.49746C7.92188 8.26836 8.05781 8.23691 8.8125 8.23242C9.38906 8.23242 9.52031 8.2459 9.65625 8.31777ZM14.1234 8.29531C14.3297 8.37617 14.5125 8.5918 14.55 8.79844C14.5969 9.02305 14.4281 9.3375 14.2031 9.4498C14.0625 9.52168 13.9359 9.53515 13.3219 9.53515C12.5344 9.53515 12.4313 9.51269 12.2156 9.26562C11.9672 8.97812 12.0984 8.48848 12.4688 8.31328C12.6797 8.20996 13.8844 8.19648 14.1234 8.29531ZM9.70781 11.2287C9.94688 11.3725 10.05 11.5791 10.0172 11.8531C9.99844 12.0328 9.96094 12.1002 9.80625 12.235C9.65625 12.3742 9.57188 12.4102 9.35625 12.4326C8.92969 12.4865 8.10938 12.4371 7.93594 12.3518C7.50938 12.1361 7.42969 11.633 7.77656 11.3141C7.97344 11.1344 8.10938 11.1119 8.85938 11.1209C9.46875 11.1299 9.55781 11.1389 9.70781 11.2287ZM9.77344 14.1621C10.0594 14.4137 10.1109 14.7461 9.91406 15.0246C9.72656 15.2852 9.51562 15.3391 8.70469 15.3211C8.10469 15.3076 8.00625 15.2986 7.89375 15.2133C7.45312 14.9033 7.44844 14.4092 7.87969 14.1262C8.03438 14.0273 8.06719 14.0229 8.84531 14.0363C9.62813 14.0498 9.65156 14.0543 9.77344 14.1621ZM9.69375 16.9922C10.1531 17.2617 10.1344 17.8951 9.65625 18.1242C9.52031 18.1916 9.36563 18.2051 8.79375 18.2051C8.16563 18.2051 8.08125 18.1961 7.91719 18.1063C7.45312 17.8547 7.45781 17.1988 7.92656 16.9787C8.05313 16.9203 8.23125 16.9023 8.8125 16.9023C9.45469 16.9023 9.55781 16.9113 9.69375 16.9922Z" fill="#0062C7"/>
<path d="M18.5391 10.0293C17.8453 10.1146 16.9969 10.4201 16.4203 10.7975C14.7375 11.8891 13.8891 14.0229 14.4797 15.685C14.9391 16.9877 16.1859 18.6408 18.0188 20.3703C18.6984 21.0127 18.8625 21.125 19.1438 21.125C19.4531 21.125 19.6219 21.0082 20.4 20.2625C22.2047 18.533 23.3578 16.9877 23.8359 15.667C24.0187 15.1639 24.0516 14.3373 23.9156 13.7084C23.5266 11.9025 22.0406 10.4785 20.1563 10.0967C19.7391 10.0113 18.9469 9.97988 18.5391 10.0293ZM20.6156 14.1172C21.075 14.3867 21.0563 14.9842 20.5781 15.2268C20.3813 15.3256 20.3344 15.3301 19.1578 15.3301C18.0328 15.3301 17.9203 15.3211 17.7422 15.2402C17.25 15.0111 17.2219 14.3867 17.6859 14.1172C17.8266 14.0318 17.9297 14.0273 19.1484 14.0273C20.3766 14.0273 20.4703 14.0318 20.6156 14.1172Z" fill="#0062C7"/>
<path d="M0.50625 11.1074C0.332813 11.1568 0.1875 11.2602 0.0890625 11.4084C0.0046875 11.5297 0 11.7723 0 17.5537C0 23.3756 0.0046875 23.5777 0.0890625 23.7035C0.290625 23.9955 0.304688 24 1.79531 24H3.14062V21.0801H2.56875C2.07656 21.0801 1.96875 21.0666 1.8375 20.9902C1.37813 20.7207 1.39688 20.1053 1.875 19.8627C2.00625 19.7953 2.14219 19.7773 2.5875 19.7773H3.14062V18.2051H2.59219C2.16094 18.2051 2.00156 18.1871 1.875 18.1242C1.39688 17.8951 1.37813 17.2617 1.8375 16.9922C1.96875 16.9158 2.07656 16.9023 2.56875 16.9023H3.14062V15.3301H2.61563C2.19375 15.3301 2.04375 15.3121 1.88906 15.2402C1.60781 15.1189 1.49063 14.9258 1.51406 14.6203C1.52813 14.4137 1.55625 14.3553 1.70625 14.216L1.875 14.0498L2.50781 14.0363L3.14062 14.0184V11.0625L1.88906 11.067C1.19531 11.067 0.576563 11.085 0.50625 11.1074Z" fill="#0062C7"/>
</svg>
