<svg width="24" height="24" viewBox="0 0 24 24" fill="none" xmlns="http://www.w3.org/2000/svg">
<path d="M9.67539 3.07223C9.02656 3.24043 8.52812 3.74502 8.37344 4.38417C8.33047 4.55237 8.30469 4.85933 8.30469 5.1705V5.6877H5.80391C3.01094 5.6877 2.94219 5.69611 2.375 5.96523C1.94961 6.17127 1.45977 6.64223 1.26211 7.03328C1.01719 7.52947 1 7.64721 1 9.01802V10.2627L6.42695 12.033C9.43906 13.0169 11.9184 13.8032 12 13.8032C12.0816 13.8032 14.5609 13.0169 17.573 12.033L23 10.2627V9.01802C23 7.64721 22.9828 7.52947 22.7379 7.03328C22.5402 6.64223 22.0504 6.17127 21.625 5.96523C21.0578 5.69611 20.9891 5.6877 18.2004 5.6877H15.6953V5.17891C15.6953 4.53975 15.6137 4.17392 15.3988 3.85014C15.1238 3.43385 14.75 3.17315 14.2773 3.06382C14.0453 3.00915 13.6457 2.99654 11.9785 3.00075C10.2168 3.00075 9.92461 3.00915 9.67539 3.07223ZM13.8047 5.6877H10.1953V4.84671H13.8047V5.6877Z" fill="#0062C7"/>
<path d="M1 15.2666C1 18.3193 1.01289 18.9501 1.06445 19.1435C1.30078 20.0224 2.08281 20.7414 2.99805 20.9306C3.44922 21.0231 20.5508 21.0231 21.002 20.9306C21.9172 20.7414 22.6992 20.0224 22.9355 19.1435C22.9871 18.9501 23 18.3193 23 15.2666V11.6251L12.3223 15.111L11.9355 15.09C11.566 15.0731 11.3426 15.0059 6.27656 13.3491L1 11.6251V15.2666Z" fill="#0062C7"/>
</svg>
