<svg width="24" height="24" viewBox="0 0 24 24" fill="none" xmlns="http://www.w3.org/2000/svg">
<path d="M1.99725 0.0829633C1.3349 0.25856 0.632702 0.804861 0.313974 1.39994C-0.0196938 2.00965 0.000226651 1.32677 0.000226651 12.0284C0.000226651 22.735 -0.0196938 21.9789 0.313974 22.6374C0.513179 23.0325 0.96637 23.4862 1.37474 23.6959C1.98729 24.0178 1.64865 24.0032 8.83994 23.9983C13.9047 23.9983 15.344 23.9837 15.2693 23.9398C13.845 23.0423 12.9286 22.1058 12.331 20.9351C10.6378 17.6085 11.8728 13.6235 15.1946 11.687C16.1707 11.1212 17.5402 10.7359 18.591 10.7359H18.9247V6.57518C18.9247 1.956 18.9297 2.03404 18.596 1.4097C18.2474 0.770718 17.6 0.263437 16.8828 0.0780862C16.4745 -0.0292248 2.40064 -0.0243476 1.99725 0.0829633ZM14.2334 4.15584C14.4774 4.2729 14.7165 4.58995 14.7713 4.86798C14.8111 5.06797 14.7165 5.43867 14.587 5.62403C14.5272 5.70207 14.3928 5.80938 14.2782 5.87279L14.0691 5.9801L9.56205 5.99473C6.43454 6.00449 4.98035 5.98985 4.79608 5.95571C4.01918 5.79475 3.77516 4.88262 4.36779 4.33632C4.6915 4.0339 4.37277 4.05341 9.40767 4.05341H14.0143L14.2334 4.15584ZM11.0959 8.80916C11.5143 8.98476 11.7234 9.3262 11.6935 9.7847C11.6686 10.1505 11.5292 10.3847 11.2304 10.5505L11.0312 10.6627L7.97838 10.6773C5.95147 10.6871 4.86082 10.6724 4.73134 10.6383C3.83492 10.4042 3.80504 9.13597 4.68154 8.78965C4.76122 8.76039 5.97637 8.74088 7.85885 8.74088C10.5033 8.736 10.9366 8.74575 11.0959 8.80916Z" fill="#0062C7"/>
<path d="M17.8988 12.8577C16.8978 13.0333 15.9864 13.4722 15.2294 14.1454C14.6069 14.6965 13.9844 15.7062 13.7503 16.5354C13.3519 17.9597 13.6059 19.5255 14.4426 20.74C14.7414 21.1693 15.3838 21.8082 15.8221 22.1058C18.4466 23.8813 22.0821 22.9447 23.4815 20.1303C24.0492 18.984 24.1588 17.5793 23.7703 16.3696C23.1827 14.5502 21.594 13.1845 19.6767 12.8577C19.1787 12.7699 18.3818 12.7699 17.8988 12.8577ZM20.9715 15.7648C21.3998 15.9062 21.6139 16.1989 21.6139 16.633C21.6139 17.0574 21.4645 17.2427 19.9854 18.628C19.2434 19.3255 18.5661 19.9352 18.4814 19.9742C18.2573 20.0913 17.844 20.0766 17.6199 19.9401C17.4057 19.8133 16.081 18.4231 15.9615 18.2036C15.8669 18.0231 15.8619 17.6524 15.9565 17.4768C16.0611 17.2817 16.3848 16.9939 16.594 16.9061C17.0472 16.7257 17.4356 16.8671 17.8589 17.3744C18.0133 17.5598 18.1627 17.7061 18.1876 17.7012C18.2075 17.6915 18.6558 17.2915 19.1787 16.8086C20.1896 15.877 20.1946 15.8721 20.4685 15.7745C20.6876 15.7014 20.7623 15.6965 20.9715 15.7648Z" fill="#0062C7"/>
</svg>
