<svg width="160" height="160" viewBox="0 0 160 160" fill="none" xmlns="http://www.w3.org/2000/svg">
<rect width="160" height="160" rx="80" fill="#F1F4FA"/>
<path fill-rule="evenodd" clip-rule="evenodd" d="M92.3255 62.4138C92.3255 69.2699 86.8075 74.8276 80.0002 74.8276C73.193 74.8276 67.6749 69.2699 67.6749 62.4138C67.6749 55.5579 73.193 50 80.0002 50C86.8075 50 92.3255 55.5579 92.3255 62.4138ZM80.0002 110C87.3297 110 94.132 107.726 99.749 103.839C102.23 102.123 103.29 98.8532 101.848 96.1926C98.8579 90.6771 92.6961 87.2414 79.9998 87.2414C67.3039 87.2414 61.1424 90.6767 58.1522 96.1926C56.7098 98.8532 57.7699 102.123 60.2509 103.839C65.868 107.725 72.6704 110 80.0002 110Z" fill="#D5DEE7"/>
</svg>
