<svg width="444" height="28" viewBox="0 0 444 28" fill="none" xmlns="http://www.w3.org/2000/svg">
<path d="M42.5441 16.0844L50.5033 6.22222H53.0838V21.7778H49.7882V11.8844L41.8291 21.7778H39.2486V6.22222H42.5441V16.0844Z" fill="#010111"/>
<path d="M66.8354 12.4133V6.22222H70.1932V21.7778H66.8354V15.5867H59.7157V21.7778H56.358V6.22222H59.7157V12.4133H66.8354Z" fill="#010111"/>
<path d="M83.7272 22.0578V28H80.4317V22.0578C78.0273 21.7467 76.1205 20.8548 74.711 19.3822C73.3016 17.9096 72.5969 16.1156 72.5969 14C72.5969 11.8844 73.3016 10.0904 74.711 8.61778C76.1205 7.14519 78.0273 6.25333 80.4317 5.94222V0H83.7272V5.94222C86.1316 6.25333 88.0384 7.14519 89.4479 8.61778C90.8573 10.0904 91.562 11.8844 91.562 14C91.562 16.1156 90.8573 17.9096 89.4479 19.3822C88.0384 20.8548 86.1316 21.7467 83.7272 22.0578ZM83.7272 9.14667V18.8533C85.1574 18.5837 86.2663 18.0237 87.0539 17.1733C87.8415 16.3022 88.2353 15.2444 88.2353 14C88.2353 12.7556 87.8415 11.7081 87.0539 10.8578C86.2663 9.98667 85.1574 9.4163 83.7272 9.14667ZM80.4317 18.8533V9.14667C79.0222 9.4163 77.9133 9.98667 77.105 10.8578C76.3174 11.7081 75.9236 12.7556 75.9236 14C75.9236 15.2444 76.3174 16.3022 77.105 17.1733C77.9133 18.0237 79.0222 18.5837 80.4317 18.8533Z" fill="#010111"/>
<path d="M107.129 19.8178C105.553 21.3941 103.615 22.1822 101.315 22.1822C99.014 22.1822 97.076 21.3941 95.5008 19.8178C93.9048 18.2207 93.1068 16.2815 93.1068 14C93.1068 11.7185 93.9048 9.77926 95.5008 8.18222C97.076 6.60593 99.014 5.81778 101.315 5.81778C103.615 5.81778 105.553 6.60593 107.129 8.18222C108.725 9.77926 109.523 11.7185 109.523 14C109.523 16.2815 108.725 18.2207 107.129 19.8178ZM96.4646 14C96.4646 15.4104 96.9309 16.5822 97.8637 17.5156C98.7964 18.4489 99.9467 18.9156 101.315 18.9156C102.683 18.9156 103.833 18.4489 104.766 17.5156C105.698 16.5822 106.165 15.4104 106.165 14C106.165 12.5896 105.698 11.4178 104.766 10.4844C103.833 9.55111 102.683 9.08444 101.315 9.08444C99.9467 9.08444 98.7964 9.55111 97.8637 10.4844C96.9309 11.4178 96.4646 12.5896 96.4646 14Z" fill="#010111"/>
<path d="M125.306 6.22222V18.6044H127.855V25.9467H124.56V21.7778H111.937V6.22222H115.295V18.6044H121.948V6.22222H125.306Z" fill="#010111"/>
<path d="M144.367 15.4311H131.993C132.241 16.5926 132.801 17.4948 133.672 18.1378C134.563 18.7807 135.661 19.1022 136.967 19.1022C138.729 19.1022 140.066 18.4593 140.978 17.1733L143.745 18.7911C142.232 21.0519 139.962 22.1822 136.936 22.1822C134.428 22.1822 132.386 21.4148 130.811 19.88C129.257 18.3244 128.479 16.3644 128.479 14C128.479 11.6978 129.246 9.75852 130.78 8.18222C132.293 6.60593 134.262 5.81778 136.687 5.81778C138.947 5.81778 140.812 6.6163 142.284 8.21333C143.755 9.81037 144.491 11.7496 144.491 14.0311C144.491 14.4459 144.45 14.9126 144.367 15.4311ZM131.962 12.6933H141.102C140.874 11.4696 140.356 10.5259 139.548 9.86222C138.76 9.19852 137.796 8.86667 136.656 8.86667C135.413 8.86667 134.376 9.20889 133.547 9.89333C132.718 10.5778 132.19 11.5111 131.962 12.6933Z" fill="#010111"/>
<path d="M157.301 12.4133V6.22222H160.659V21.7778H157.301V15.5867H150.181V21.7778H146.824V6.22222H150.181V12.4133H157.301Z" fill="#010111"/>
<path d="M162.285 6.22222H175.81V9.45778H170.742V21.7778H167.384V9.45778H162.285V6.22222Z" fill="#010111"/>
<path d="M186.258 5.81778C188.373 5.81778 190.197 6.6163 191.73 8.21333C193.243 9.78963 194 11.7185 194 14C194 16.3022 193.243 18.2415 191.73 19.8178C190.217 21.3941 188.393 22.1822 186.258 22.1822C183.916 22.1822 182.103 21.3111 180.818 19.5689V28H177.46V6.22222H180.818V8.46222C182.082 6.69926 183.896 5.81778 186.258 5.81778ZM182.217 17.5778C183.149 18.5111 184.321 18.9778 185.73 18.9778C187.139 18.9778 188.31 18.5111 189.243 17.5778C190.176 16.6237 190.642 15.4311 190.642 14C190.642 12.5689 190.176 11.3867 189.243 10.4533C188.31 9.49926 187.139 9.02222 185.73 9.02222C184.321 9.02222 183.149 9.49926 182.217 10.4533C181.284 11.3867 180.818 12.5689 180.818 14C180.818 15.4104 181.284 16.603 182.217 17.5778Z" fill="#010111"/>
<path d="M16.8208 4.48001H28.0347V23.52H16.8208V4.48001Z" fill="#0062C7"/>
<path d="M11.2139 4.48H0V15.68L11.2139 4.48Z" fill="#0062C7"/>
<path d="M1.37293e-05 23.52H11.2139V12.32L1.37293e-05 23.52Z" fill="#0062C7"/>
<path d="M220 6.40112H233.722V21.8289H230.392V9.54839H223.33V21.8289H220V6.40112Z" fill="#20CA89"/>
<path d="M246.312 6C248.409 6 250.218 6.79196 251.739 8.37588C253.24 9.93922 253.99 11.8523 253.99 14.115C253.99 16.3983 253.24 18.3216 251.739 19.885C250.239 21.4483 248.43 22.23 246.312 22.23C243.989 22.23 242.191 21.3661 240.916 19.6381V28H237.586V6.40112H240.916V8.62272C242.17 6.87424 243.969 6 246.312 6ZM242.304 17.6634C243.229 18.5891 244.39 19.0519 245.788 19.0519C247.186 19.0519 248.348 18.5891 249.273 17.6634C250.198 16.7172 250.66 15.5344 250.66 14.115C250.66 12.6957 250.198 11.5231 249.273 10.5975C248.348 9.65124 247.186 9.17812 245.788 9.17812C244.39 9.17812 243.229 9.65124 242.304 10.5975C241.379 11.5231 240.916 12.6957 240.916 14.115C240.916 15.5138 241.379 16.6966 242.304 17.6634Z" fill="#20CA89"/>
<path d="M271.902 15.5344H259.63C259.876 16.6863 260.431 17.5811 261.295 18.2188C262.179 18.8565 263.268 19.1753 264.563 19.1753C266.311 19.1753 267.637 18.5376 268.541 17.2623L271.286 18.8668C269.785 21.1089 267.534 22.23 264.533 22.23C262.045 22.23 260.02 21.4689 258.458 19.9467C256.916 18.4039 256.145 16.46 256.145 14.115C256.145 11.8317 256.906 9.90837 258.427 8.34502C259.928 6.78167 261.881 6 264.286 6C266.527 6 268.377 6.79196 269.836 8.37588C271.296 9.95979 272.026 11.8831 272.026 14.1459C272.026 14.5573 271.985 15.0201 271.902 15.5344ZM259.599 12.8191H268.665C268.438 11.6054 267.924 10.6695 267.123 10.0112C266.342 9.35297 265.386 9.02384 264.255 9.02384C263.022 9.02384 261.994 9.36325 261.172 10.0421C260.349 10.7209 259.825 11.6466 259.599 12.8191Z" fill="#20CA89"/>
<path d="M274.956 6.40112H288.678V21.8289H285.348V9.54839H278.286V21.8289H274.956V6.40112Z" fill="#20CA89"/>
<path d="M305.585 19.885C304.023 21.4483 302.101 22.23 299.819 22.23C297.537 22.23 295.615 21.4483 294.053 19.885C292.47 18.3011 291.678 16.3777 291.678 14.115C291.678 11.8523 292.47 9.92894 294.053 8.34502C295.615 6.78167 297.537 6 299.819 6C302.101 6 304.023 6.78167 305.585 8.34502C307.168 9.92894 307.96 11.8523 307.96 14.115C307.96 16.3777 307.168 18.3011 305.585 19.885ZM295.009 14.115C295.009 15.5138 295.471 16.676 296.396 17.6017C297.321 18.5273 298.462 18.9902 299.819 18.9902C301.176 18.9902 302.317 18.5273 303.242 17.6017C304.167 16.676 304.629 15.5138 304.629 14.115C304.629 12.7162 304.167 11.554 303.242 10.6283C302.317 9.70266 301.176 9.23983 299.819 9.23983C298.462 9.23983 297.321 9.70266 296.396 10.6283C295.471 11.554 295.009 12.7162 295.009 14.115Z" fill="#20CA89"/>
<path d="M323.936 6.40112V18.6816H326.002V25.9635H322.734V21.8289H312.157V25.9635H308.889V18.6816H310.77C311.715 17.3651 312.188 15.5035 312.188 13.0968V6.40112H323.936ZM314.439 18.6816H320.668V9.45582H315.457V13.0968C315.457 15.3184 315.117 17.18 314.439 18.6816Z" fill="#20CA89"/>
<path d="M340.316 8.59186V6.40112H343.646V21.8289H340.316V19.6073C339.062 21.3558 337.263 22.23 334.92 22.23C332.802 22.23 330.993 21.4483 329.493 19.885C327.992 18.3216 327.242 16.3983 327.242 14.115C327.242 11.8317 327.992 9.90837 329.493 8.34502C330.993 6.78167 332.802 6 334.92 6C337.263 6 339.062 6.86395 340.316 8.59186ZM331.96 17.6634C332.885 18.5891 334.046 19.0519 335.444 19.0519C336.842 19.0519 338.003 18.5891 338.928 17.6634C339.854 16.7172 340.316 15.5344 340.316 14.115C340.316 12.6957 339.854 11.5231 338.928 10.5975C338.003 9.65124 336.842 9.17812 335.444 9.17812C334.046 9.17812 332.885 9.65124 331.96 10.5975C331.035 11.5231 330.572 12.6957 330.572 14.115C330.572 15.5138 331.035 16.6966 331.96 17.6634Z" fill="#20CA89"/>
<path d="M358.197 13.899C359.718 14.619 360.479 15.8018 360.479 17.4474C360.479 18.7639 360.027 19.8233 359.122 20.6255C358.238 21.4278 357.005 21.8289 355.422 21.8289H347.528V6.40112H354.805C356.368 6.40112 357.591 6.79196 358.475 7.57363C359.359 8.35531 359.801 9.38382 359.801 10.6592C359.801 12.1197 359.266 13.1996 358.197 13.899ZM354.559 9.23983H350.704V12.6648H354.559C355.915 12.6648 356.594 12.0888 356.594 10.9369C356.594 9.80552 355.915 9.23983 354.559 9.23983ZM350.704 18.9285H355.114C356.511 18.9285 357.21 18.3216 357.21 17.108C357.21 16.5732 357.025 16.1618 356.655 15.8738C356.285 15.5652 355.771 15.4109 355.114 15.4109H350.704V18.9285Z" fill="#20CA89"/>
<path d="M375.398 8.59186V6.40112H378.728V21.8289H375.398V19.6073C374.144 21.3558 372.345 22.23 370.001 22.23C367.884 22.23 366.075 21.4483 364.574 19.885C363.074 18.3216 362.323 16.3983 362.323 14.115C362.323 11.8317 363.074 9.90837 364.574 8.34502C366.075 6.78167 367.884 6 370.001 6C372.345 6 374.144 6.86395 375.398 8.59186ZM367.041 17.6634C367.966 18.5891 369.128 19.0519 370.526 19.0519C371.923 19.0519 373.085 18.5891 374.01 17.6634C374.935 16.7172 375.398 15.5344 375.398 14.115C375.398 12.6957 374.935 11.5231 374.01 10.5975C373.085 9.65124 371.923 9.17812 370.526 9.17812C369.128 9.17812 367.966 9.65124 367.041 10.5975C366.116 11.5231 365.654 12.6957 365.654 14.115C365.654 15.5138 366.116 16.6966 367.041 17.6634Z" fill="#20CA89"/>
<path d="M380.975 6.40112H394.389V9.6101H389.362V21.8289H386.032V9.6101H380.975V6.40112Z" fill="#20CA89"/>
<path d="M410.933 15.5344H398.661C398.908 16.6863 399.463 17.5811 400.326 18.2188C401.21 18.8565 402.299 19.1753 403.595 19.1753C405.342 19.1753 406.668 18.5376 407.572 17.2623L410.317 18.8668C408.816 21.1089 406.565 22.23 403.564 22.23C401.076 22.23 399.051 21.4689 397.489 19.9467C395.947 18.4039 395.176 16.46 395.176 14.115C395.176 11.8317 395.937 9.90837 397.458 8.34502C398.959 6.78167 400.912 6 403.317 6C405.558 6 407.408 6.79196 408.867 8.37588C410.327 9.95979 411.057 11.8831 411.057 14.1459C411.057 14.5573 411.016 15.0201 410.933 15.5344ZM398.63 12.8191H407.696C407.47 11.6054 406.956 10.6695 406.154 10.0112C405.373 9.35297 404.417 9.02384 403.286 9.02384C402.053 9.02384 401.025 9.36325 400.203 10.0421C399.38 10.7209 398.856 11.6466 398.63 12.8191Z" fill="#20CA89"/>
<path d="M414.587 6.40112H426.397V21.8289H423.067V9.6101H417.918V15.3492C417.918 17.756 417.393 19.4839 416.345 20.533C415.297 21.582 413.765 22.014 411.751 21.8289V18.7125C412.696 18.877 413.405 18.6816 413.878 18.1262C414.351 17.5503 414.587 16.5732 414.587 15.195V6.40112Z" fill="#20CA89"/>
<path d="M433.547 16.1823L441.441 6.40112H444V21.8289H440.731V12.0168L432.838 21.8289H430.278V6.40112H433.547V16.1823Z" fill="#20CA89"/>
<path d="M211 13.885C211 16.0941 209.209 17.885 207 17.885C204.791 17.885 203 16.0941 203 13.885C203 11.6759 204.791 9.88499 207 9.88499C209.209 9.88499 211 11.6759 211 13.885Z" fill="#20CA89"/>
</svg>
