<svg width="165" height="24" viewBox="0 0 165 24" fill="none" xmlns="http://www.w3.org/2000/svg">
<path d="M14.4 4.00002H24V20H14.4V4.00002Z" fill="white"/>
<path d="M9.60001 4H0V13.4118L9.60001 4Z" fill="white"/>
<path d="M4.89855e-06 20H9.60001V10.5882L4.89855e-06 20Z" fill="white"/>
<path d="M34.8324 13.7867L41.6728 5.33333H43.8906V18.6667H41.0582V10.1867L34.2178 18.6667H32V5.33333H34.8324V13.7867Z" fill="white"/>
<path d="M55.7094 10.64V5.33333H58.5952V18.6667H55.7094V13.36H49.5904V18.6667H46.7046V5.33333H49.5904V10.64H55.7094Z" fill="white"/>
<path d="M70.2269 18.9067V24H67.3945V18.9067C65.3281 18.64 63.6893 17.8756 62.478 16.6133C61.2666 15.3511 60.661 13.8133 60.661 12C60.661 10.1867 61.2666 8.64889 62.478 7.38667C63.6893 6.12444 65.3281 5.36 67.3945 5.09333V0H70.2269V5.09333C72.2933 5.36 73.9321 6.12444 75.1434 7.38667C76.3548 8.64889 76.9604 10.1867 76.9604 12C76.9604 13.8133 76.3548 15.3511 75.1434 16.6133C73.9321 17.8756 72.2933 18.64 70.2269 18.9067ZM70.2269 7.84V16.16C71.456 15.9289 72.409 15.4489 73.086 14.72C73.7629 13.9733 74.1013 13.0667 74.1013 12C74.1013 10.9333 73.7629 10.0356 73.086 9.30667C72.409 8.56 71.456 8.07111 70.2269 7.84ZM67.3945 16.16V7.84C66.1832 8.07111 65.2302 8.56 64.5354 9.30667C63.8585 10.0356 63.5201 10.9333 63.5201 12C63.5201 13.0667 63.8585 13.9733 64.5354 14.72C65.2302 15.4489 66.1832 15.9289 67.3945 16.16Z" fill="white"/>
<path d="M90.339 16.9867C88.9852 18.3378 87.3196 19.0133 85.3423 19.0133C83.365 19.0133 81.6994 18.3378 80.3456 16.9867C78.9739 15.6178 78.2881 13.9556 78.2881 12C78.2881 10.0444 78.9739 8.38222 80.3456 7.01333C81.6994 5.66222 83.365 4.98667 85.3423 4.98667C87.3196 4.98667 88.9852 5.66222 90.339 7.01333C91.7107 8.38222 92.3965 10.0444 92.3965 12C92.3965 13.9556 91.7107 15.6178 90.339 16.9867ZM81.1739 12C81.1739 13.2089 81.5747 14.2133 82.3763 15.0133C83.1779 15.8133 84.1666 16.2133 85.3423 16.2133C86.518 16.2133 87.5066 15.8133 88.3083 15.0133C89.1099 14.2133 89.5107 13.2089 89.5107 12C89.5107 10.7911 89.1099 9.78667 88.3083 8.98667C87.5066 8.18667 86.518 7.78667 85.3423 7.78667C84.1666 7.78667 83.1779 8.18667 82.3763 8.98667C81.5747 9.78667 81.1739 10.7911 81.1739 12Z" fill="white"/>
<path d="M105.961 5.33333V15.9467H108.152V22.24H105.32V18.6667H94.4715V5.33333H97.3573V15.9467H103.075V5.33333H105.961Z" fill="white"/>
<path d="M122.343 13.2267H111.708C111.922 14.2222 112.403 14.9956 113.151 15.5467C113.917 16.0978 114.861 16.3733 115.983 16.3733C117.498 16.3733 118.647 15.8222 119.43 14.72L121.809 16.1067C120.508 18.0444 118.558 19.0133 115.957 19.0133C113.801 19.0133 112.047 18.3556 110.693 17.04C109.357 15.7067 108.689 14.0267 108.689 12C108.689 10.0267 109.348 8.36444 110.666 7.01333C111.967 5.66222 113.659 4.98667 115.743 4.98667C117.685 4.98667 119.288 5.67111 120.553 7.04C121.817 8.40889 122.45 10.0711 122.45 12.0267C122.45 12.3822 122.414 12.7822 122.343 13.2267ZM111.682 10.88H119.537C119.341 9.83111 118.896 9.02222 118.201 8.45333C117.524 7.88445 116.696 7.6 115.716 7.6C114.647 7.6 113.757 7.89333 113.044 8.48C112.332 9.06667 111.877 9.86667 111.682 10.88Z" fill="white"/>
<path d="M133.459 10.64V5.33333H136.345V18.6667H133.459V13.36H127.341V18.6667H124.455V5.33333H127.341V10.64H133.459Z" fill="white"/>
<path d="M137.743 5.33333H149.366V8.10667H145.011V18.6667H142.125V8.10667H137.743V5.33333Z" fill="white"/>
<path d="M158.347 4.98667C160.164 4.98667 161.731 5.67111 163.049 7.04C164.35 8.39111 165 10.0444 165 12C165 13.9733 164.35 15.6356 163.049 16.9867C161.749 18.3378 160.181 19.0133 158.347 19.0133C156.334 19.0133 154.775 18.2667 153.671 16.7733V24H150.785V5.33333H153.671V7.25333C154.757 5.74222 156.316 4.98667 158.347 4.98667ZM154.873 15.0667C155.675 15.8667 156.681 16.2667 157.892 16.2667C159.104 16.2667 160.11 15.8667 160.912 15.0667C161.713 14.2489 162.114 13.2267 162.114 12C162.114 10.7733 161.713 9.76 160.912 8.96C160.11 8.14222 159.104 7.73333 157.892 7.73333C156.681 7.73333 155.675 8.14222 154.873 8.96C154.071 9.76 153.671 10.7733 153.671 12C153.671 13.2089 154.071 14.2311 154.873 15.0667Z" fill="white"/>
</svg>
