<svg width="321" height="28" viewBox="0 0 321 28" fill="none" xmlns="http://www.w3.org/2000/svg">
<path d="M42.5441 16.0844L50.5033 6.22222H53.0838V21.7778H49.7882V11.8844L41.8291 21.7778H39.2486V6.22222H42.5441V16.0844Z" fill="#010111"/>
<path d="M66.8354 12.4133V6.22222H70.1932V21.7778H66.8354V15.5867H59.7157V21.7778H56.358V6.22222H59.7157V12.4133H66.8354Z" fill="#010111"/>
<path d="M83.7272 22.0578V28H80.4317V22.0578C78.0273 21.7467 76.1205 20.8548 74.711 19.3822C73.3016 17.9096 72.5969 16.1156 72.5969 14C72.5969 11.8844 73.3016 10.0904 74.711 8.61778C76.1205 7.14519 78.0273 6.25333 80.4317 5.94222V0H83.7272V5.94222C86.1316 6.25333 88.0384 7.14519 89.4479 8.61778C90.8573 10.0904 91.562 11.8844 91.562 14C91.562 16.1156 90.8573 17.9096 89.4479 19.3822C88.0384 20.8548 86.1316 21.7467 83.7272 22.0578ZM83.7272 9.14667V18.8533C85.1574 18.5837 86.2663 18.0237 87.0539 17.1733C87.8415 16.3022 88.2353 15.2444 88.2353 14C88.2353 12.7556 87.8415 11.7081 87.0539 10.8578C86.2663 9.98667 85.1574 9.4163 83.7272 9.14667ZM80.4317 18.8533V9.14667C79.0222 9.4163 77.9133 9.98667 77.105 10.8578C76.3174 11.7081 75.9236 12.7556 75.9236 14C75.9236 15.2444 76.3174 16.3022 77.105 17.1733C77.9133 18.0237 79.0222 18.5837 80.4317 18.8533Z" fill="#010111"/>
<path d="M107.129 19.8178C105.553 21.3941 103.615 22.1822 101.315 22.1822C99.014 22.1822 97.076 21.3941 95.5008 19.8178C93.9048 18.2207 93.1068 16.2815 93.1068 14C93.1068 11.7185 93.9048 9.77926 95.5008 8.18222C97.076 6.60593 99.014 5.81778 101.315 5.81778C103.615 5.81778 105.553 6.60593 107.129 8.18222C108.725 9.77926 109.523 11.7185 109.523 14C109.523 16.2815 108.725 18.2207 107.129 19.8178ZM96.4646 14C96.4646 15.4104 96.9309 16.5822 97.8637 17.5156C98.7964 18.4489 99.9467 18.9156 101.315 18.9156C102.683 18.9156 103.833 18.4489 104.766 17.5156C105.698 16.5822 106.165 15.4104 106.165 14C106.165 12.5896 105.698 11.4178 104.766 10.4844C103.833 9.55111 102.683 9.08444 101.315 9.08444C99.9467 9.08444 98.7964 9.55111 97.8637 10.4844C96.9309 11.4178 96.4646 12.5896 96.4646 14Z" fill="#010111"/>
<path d="M125.306 6.22222V18.6044H127.855V25.9467H124.56V21.7778H111.937V6.22222H115.295V18.6044H121.948V6.22222H125.306Z" fill="#010111"/>
<path d="M144.367 15.4311H131.993C132.241 16.5926 132.801 17.4948 133.672 18.1378C134.563 18.7807 135.661 19.1022 136.967 19.1022C138.729 19.1022 140.066 18.4593 140.978 17.1733L143.745 18.7911C142.232 21.0519 139.962 22.1822 136.936 22.1822C134.428 22.1822 132.386 21.4148 130.811 19.88C129.257 18.3244 128.479 16.3644 128.479 14C128.479 11.6978 129.246 9.75852 130.78 8.18222C132.293 6.60593 134.262 5.81778 136.687 5.81778C138.947 5.81778 140.812 6.6163 142.284 8.21333C143.755 9.81037 144.491 11.7496 144.491 14.0311C144.491 14.4459 144.45 14.9126 144.367 15.4311ZM131.962 12.6933H141.102C140.874 11.4696 140.356 10.5259 139.548 9.86222C138.76 9.19852 137.796 8.86667 136.656 8.86667C135.413 8.86667 134.376 9.20889 133.547 9.89333C132.718 10.5778 132.19 11.5111 131.962 12.6933Z" fill="#010111"/>
<path d="M157.301 12.4133V6.22222H160.659V21.7778H157.301V15.5867H150.181V21.7778H146.824V6.22222H150.181V12.4133H157.301Z" fill="#010111"/>
<path d="M162.285 6.22222H175.81V9.45778H170.742V21.7778H167.384V9.45778H162.285V6.22222Z" fill="#010111"/>
<path d="M186.258 5.81778C188.373 5.81778 190.197 6.6163 191.73 8.21333C193.243 9.78963 194 11.7185 194 14C194 16.3022 193.243 18.2415 191.73 19.8178C190.217 21.3941 188.393 22.1822 186.258 22.1822C183.916 22.1822 182.103 21.3111 180.818 19.5689V28H177.46V6.22222H180.818V8.46222C182.082 6.69926 183.896 5.81778 186.258 5.81778ZM182.217 17.5778C183.149 18.5111 184.321 18.9778 185.73 18.9778C187.139 18.9778 188.31 18.5111 189.243 17.5778C190.176 16.6237 190.642 15.4311 190.642 14C190.642 12.5689 190.176 11.3867 189.243 10.4533C188.31 9.49926 187.139 9.02222 185.73 9.02222C184.321 9.02222 183.149 9.49926 182.217 10.4533C181.284 11.3867 180.818 12.5689 180.818 14C180.818 15.4104 181.284 16.603 182.217 17.5778Z" fill="#010111"/>
<path d="M16.8208 4.48001H28.0347V23.52H16.8208V4.48001Z" fill="#0062C7"/>
<path d="M11.2139 4.48H0V15.68L11.2139 4.48Z" fill="#0062C7"/>
<path d="M1.37293e-05 23.52H11.2139V12.32L1.37293e-05 23.52Z" fill="#0062C7"/>
<path d="M211 14C211 16.2091 209.209 18 207 18C204.791 18 203 16.2091 203 14C203 11.7909 204.791 10 207 10C209.209 10 211 11.7909 211 14Z" fill="#0062C7"/>
<path d="M228.221 17.6247L232.162 6.40085H235.703L229.791 22.3116C229.073 24.2644 228.067 25.724 226.774 26.6901C225.481 27.6563 223.982 28.088 222.278 27.9852V24.8709C224.249 24.9942 225.614 24.0075 226.374 21.9107L226.466 21.6949L220 6.40085H223.541L228.221 17.6247Z" fill="#0062C7"/>
<path d="M247.142 13.462V6.40085H250.468V21.8182H247.142V16.6072C245.931 17.0594 244.638 17.2855 243.263 17.2855C241.313 17.2855 239.794 16.8127 238.706 15.8671C237.618 14.901 237.074 13.5134 237.074 11.7044V6.40085H240.399V11.3961C240.399 13.2462 241.498 14.1712 243.694 14.1712C244.946 14.1712 246.096 13.9348 247.142 13.462Z" fill="#0062C7"/>
<path d="M269.222 15.5279H256.967C257.213 16.6791 257.768 17.5733 258.63 18.2106C259.512 18.8478 260.6 19.1664 261.894 19.1664C263.638 19.1664 264.962 18.5292 265.865 17.2547L268.606 18.8581C267.107 21.0987 264.86 22.2191 261.863 22.2191C259.379 22.2191 257.357 21.4585 255.797 19.9373C254.258 18.3956 253.488 16.453 253.488 14.1095C253.488 11.8278 254.247 9.90573 255.766 8.34344C257.265 6.78115 259.215 6 261.616 6C263.854 6 265.701 6.79143 267.159 8.37428C268.616 9.95713 269.345 11.8792 269.345 14.1404C269.345 14.5515 269.304 15.014 269.222 15.5279ZM256.936 12.8145H265.989C265.763 11.6016 265.25 10.6663 264.449 10.0085C263.669 9.35071 262.715 9.0218 261.586 9.0218C260.354 9.0218 259.328 9.36099 258.507 10.0394C257.686 10.7177 257.162 11.6428 256.936 12.8145Z" fill="#0062C7"/>
<path d="M282.647 12.537V6.40085H285.972V21.8182H282.647V15.6821H275.596V21.8182H272.271V6.40085H275.596V12.537H282.647Z" fill="#0062C7"/>
<path d="M293.095 16.1755L300.977 6.40085H303.532V21.8182H300.269V12.0128L292.386 21.8182H289.831V6.40085H293.095V16.1755Z" fill="#0062C7"/>
<path d="M313.98 13.9554L321 21.8182H317.028L310.716 14.6954V21.8182H307.391V6.40085H310.716V13.2153L316.689 6.40085H320.754L313.98 13.9554Z" fill="#0062C7"/>
</svg>
