<svg width="166" height="24" viewBox="0 0 166 24" fill="none" xmlns="http://www.w3.org/2000/svg">
<path d="M36.4037 13.7867L43.2141 5.33333H45.4222V18.6667H42.6023V10.1867L35.7919 18.6667H33.5838V5.33333H36.4037V13.7867Z" fill="#010111"/>
<path d="M57.1891 10.64V5.33333H60.0622V18.6667H57.1891V13.36H51.097V18.6667H48.2238V5.33333H51.097V10.64H57.1891Z" fill="#010111"/>
<path d="M71.6429 18.9067V24H68.823V18.9067C66.7657 18.64 65.134 17.8756 63.928 16.6133C62.722 15.3511 62.119 13.8133 62.119 12C62.119 10.1867 62.722 8.64889 63.928 7.38667C65.134 6.12444 66.7657 5.36 68.823 5.09333V0H71.6429V5.09333C73.7002 5.36 75.3319 6.12444 76.5379 7.38667C77.7439 8.64889 78.3469 10.1867 78.3469 12C78.3469 13.8133 77.7439 15.3511 76.5379 16.6133C75.3319 17.8756 73.7002 18.64 71.6429 18.9067ZM71.6429 7.84V16.16C72.8666 15.9289 73.8155 15.4489 74.4894 14.72C75.1634 13.9733 75.5004 13.0667 75.5004 12C75.5004 10.9333 75.1634 10.0356 74.4894 9.30667C73.8155 8.56 72.8666 8.07111 71.6429 7.84ZM68.823 16.16V7.84C67.617 8.07111 66.6681 8.56 65.9764 9.30667C65.3025 10.0356 64.9655 10.9333 64.9655 12C64.9655 13.0667 65.3025 13.9733 65.9764 14.72C66.6681 15.4489 67.617 15.9289 68.823 16.16Z" fill="#010111"/>
<path d="M91.6667 16.9867C90.3188 18.3378 88.6606 19.0133 86.692 19.0133C84.7233 19.0133 83.0651 18.3378 81.7172 16.9867C80.3515 15.6178 79.6687 13.9556 79.6687 12C79.6687 10.0444 80.3515 8.38222 81.7172 7.01333C83.0651 5.66222 84.7233 4.98667 86.692 4.98667C88.6606 4.98667 90.3188 5.66222 91.6667 7.01333C93.0324 8.38222 93.7152 10.0444 93.7152 12C93.7152 13.9556 93.0324 15.6178 91.6667 16.9867ZM82.5419 12C82.5419 13.2089 82.9409 14.2133 83.739 15.0133C84.5371 15.8133 85.5214 16.2133 86.692 16.2133C87.8625 16.2133 88.8468 15.8133 89.6449 15.0133C90.443 14.2133 90.842 13.2089 90.842 12C90.842 10.7911 90.443 9.78667 89.6449 8.98667C88.8468 8.18667 87.8625 7.78667 86.692 7.78667C85.5214 7.78667 84.5371 8.18667 83.739 8.98667C82.9409 9.78667 82.5419 10.7911 82.5419 12Z" fill="#010111"/>
<path d="M107.22 5.33333V15.9467H109.402V22.24H106.582V18.6667H95.7811V5.33333H98.6542V15.9467H104.347V5.33333H107.22Z" fill="#010111"/>
<path d="M123.53 13.2267H112.942C113.155 14.2222 113.634 14.9956 114.379 15.5467C115.141 16.0978 116.081 16.3733 117.199 16.3733C118.706 16.3733 119.85 15.8222 120.63 14.72L122.998 16.1067C121.703 18.0444 119.761 19.0133 117.172 19.0133C115.026 19.0133 113.279 18.3556 111.931 17.04C110.601 15.7067 109.936 14.0267 109.936 12C109.936 10.0267 110.592 8.36444 111.905 7.01333C113.199 5.66222 114.884 4.98667 116.959 4.98667C118.892 4.98667 120.489 5.67111 121.748 7.04C123.007 8.40889 123.637 10.0711 123.637 12.0267C123.637 12.3822 123.601 12.7822 123.53 13.2267ZM112.916 10.88H120.737C120.542 9.83111 120.098 9.02222 119.407 8.45333C118.733 7.88445 117.908 7.6 116.933 7.6C115.868 7.6 114.982 7.89333 114.272 8.48C113.563 9.06667 113.111 9.86667 112.916 10.88Z" fill="#010111"/>
<path d="M134.598 10.64V5.33333H137.471V18.6667H134.598V13.36H128.506V18.6667H125.633V5.33333H128.506V10.64H134.598Z" fill="#010111"/>
<path d="M138.863 5.33333H150.435V8.10667H146.099V18.6667H143.226V8.10667H138.863V5.33333Z" fill="#010111"/>
<path d="M159.376 4.98667C161.185 4.98667 162.746 5.67111 164.058 7.04C165.353 8.39111 166 10.0444 166 12C166 13.9733 165.353 15.6356 164.058 16.9867C162.763 18.3378 161.203 19.0133 159.376 19.0133C157.372 19.0133 155.82 18.2667 154.72 16.7733V24H151.847V5.33333H154.72V7.25333C155.802 5.74222 157.354 4.98667 159.376 4.98667ZM155.917 15.0667C156.715 15.8667 157.718 16.2667 158.924 16.2667C160.13 16.2667 161.132 15.8667 161.93 15.0667C162.728 14.2489 163.127 13.2267 163.127 12C163.127 10.7733 162.728 9.76 161.93 8.96C161.132 8.14222 160.13 7.73333 158.924 7.73333C157.718 7.73333 156.715 8.14222 155.917 8.96C155.119 9.76 154.72 10.7733 154.72 12C154.72 13.2089 155.119 14.2311 155.917 15.0667Z" fill="#010111"/>
<path d="M14.3931 3.84001H23.9885V20.16H14.3931V3.84001Z" fill="#0062C7"/>
<path d="M9.59538 3.84H0V13.44L9.59538 3.84Z" fill="#0062C7"/>
<path d="M1.17477e-05 20.16H9.59539V10.56L1.17477e-05 20.16Z" fill="#0062C7"/>
</svg>
