<svg width="68" height="68" viewBox="0 0 68 68" fill="none" xmlns="http://www.w3.org/2000/svg">
<path d="M34 2C16.3269 2 2 16.3269 2 34C2 51.6731 16.3269 66 34 66C51.6731 66 66 51.6731 66 34C66 16.3269 51.6731 2 34 2Z" fill="url(#paint0_radial_156_4818)"/>
<path d="M34 2C16.3269 2 2 16.3269 2 34C2 51.6731 16.3269 66 34 66C51.6731 66 66 51.6731 66 34C66 16.3269 51.6731 2 34 2Z" stroke="white" stroke-width="4"/>
<path d="M43 35.5H35.5V43C35.5 43.3978 35.342 43.7794 35.0607 44.0607C34.7794 44.342 34.3978 44.5 34 44.5C33.6022 44.5 33.2206 44.342 32.9393 44.0607C32.658 43.7794 32.5 43.3978 32.5 43V35.5H25C24.6022 35.5 24.2206 35.342 23.9393 35.0607C23.658 34.7794 23.5 34.3978 23.5 34C23.5 33.6022 23.658 33.2206 23.9393 32.9393C24.2206 32.658 24.6022 32.5 25 32.5H32.5V25C32.5 24.6022 32.658 24.2206 32.9393 23.9393C33.2206 23.658 33.6022 23.5 34 23.5C34.3978 23.5 34.7794 23.658 35.0607 23.9393C35.342 24.2206 35.5 24.6022 35.5 25V32.5H43C43.3978 32.5 43.7794 32.658 44.0607 32.9393C44.342 33.2206 44.5 33.6022 44.5 34C44.5 34.3978 44.342 34.7794 44.0607 35.0607C43.7794 35.342 43.3978 35.5 43 35.5Z" fill="white"/>
<defs>
<radialGradient id="paint0_radial_156_4818" cx="0" cy="0" r="1" gradientUnits="userSpaceOnUse" gradientTransform="translate(-2.5 15) rotate(31.9688) scale(83.1039 84.2526)">
<stop stop-color="#0062C7"/>
<stop offset="0.309312" stop-color="#033060"/>
<stop offset="0.711353" stop-color="#001F3F"/>
<stop offset="1" stop-color="#0062C7"/>
</radialGradient>
</defs>
</svg>
