<svg width="245" height="69" viewBox="0 0 245 69" fill="none" xmlns="http://www.w3.org/2000/svg">
<g opacity="0.04">
<path d="M66.5138 94.7834C66.5138 120.514 60.4909 143.71 50.8565 160.405C41.1915 177.153 28.139 187 14.1422 187C0.145332 187 -12.9072 177.153 -22.5722 160.405C-32.2066 143.71 -38.2295 120.514 -38.2295 94.7834C-38.2295 69.0531 -32.2066 45.8567 -22.5722 29.1619C-12.9072 12.4142 0.145332 2.56689 14.1422 2.56689C28.139 2.56689 41.1915 12.4142 50.8565 29.1619C60.4909 45.8567 66.5138 69.0531 66.5138 94.7834Z" stroke="#0062C7" stroke-width="4"/>
<path d="M125.257 94.7834C125.257 120.514 119.234 143.71 109.6 160.405C99.9347 177.153 86.8822 187 72.8853 187C58.8885 187 45.836 177.153 36.171 160.405C26.5366 143.71 20.5137 120.514 20.5137 94.7834C20.5137 69.0531 26.5366 45.8567 36.171 29.1619C45.836 12.4142 58.8885 2.56689 72.8853 2.56689C86.8822 2.56689 99.9347 12.4142 109.6 29.1619C119.234 45.8567 125.257 69.0531 125.257 94.7834Z" stroke="#0062C7" stroke-width="4"/>
<path d="M184 94.7834C184 120.514 177.977 143.71 168.343 160.405C158.678 177.153 145.625 187 131.629 187C117.632 187 104.579 177.153 94.9142 160.405C85.2797 143.71 79.2568 120.514 79.2568 94.7834C79.2568 69.0531 85.2797 45.8567 94.9142 29.1619C104.579 12.4142 117.632 2.56689 131.629 2.56689C145.625 2.56689 158.678 12.4142 168.343 29.1619C177.977 45.8567 184 69.0531 184 94.7834Z" stroke="#0062C7" stroke-width="4"/>
<path d="M242.743 94.7834C242.743 120.514 236.72 143.71 227.086 160.405C217.421 177.153 204.369 187 190.372 187C176.375 187 163.322 177.153 153.657 160.405C144.023 143.71 138 120.514 138 94.7834C138 69.0531 144.023 45.8567 153.657 29.1619C163.322 12.4142 176.375 2.56689 190.372 2.56689C204.369 2.56689 217.421 12.4142 227.086 29.1619C236.72 45.8567 242.743 69.0531 242.743 94.7834Z" stroke="#0062C7" stroke-width="4"/>
</g>
</svg>
